<?xml version="1.0" standalone="no"?>
<!DOCTYPE svg PUBLIC "-//W3C//DTD SVG 1.1//EN" "http://www.w3.org/Graphics/SVG/1.1/DTD/svg11.dtd" >
<svg xmlns="http://www.w3.org/2000/svg" xmlns:xlink="http://www.w3.org/1999/xlink" version="1.1">
<metadata>
Created by FontForge 20170731 at Mon Apr 25 01:40:44 2022
 By Aleksey,,,
----Monotype Bodoni is a trademark of the Monotype Corporation plc
</metadata>
<defs>
<font id="MBodoni-BookItalic" horiz-adv-x="980" >
  <font-face 
    font-family="Bodoni Book"
    font-weight="500"
    font-style="italic"
    font-stretch="normal"
    units-per-em="2048"
    panose-1="0 0 0 0 0 0 0 0 0 0"
    ascent="1638"
    descent="-410"
    x-height="834"
    cap-height="1393"
    bbox="-328 -489 2154 1833"
    underline-thickness="83"
    underline-position="-441"
    slope="-15"
    unicode-range="U+0020-FB02"
  />
<missing-glyph horiz-adv-x="681" 
 />
    <glyph glyph-name=".notdef" horiz-adv-x="681" 
 />
    <glyph glyph-name=".null" horiz-adv-x="0" 
 />
    <glyph glyph-name="nonmarkingreturn" horiz-adv-x="682" 
 />
    <glyph glyph-name="space" unicode=" " horiz-adv-x="681" 
 />
    <glyph glyph-name="exclam" unicode="!" horiz-adv-x="661" 
d="M203 201q47 0 79.5 -32.5t32.5 -78.5t-33 -79.5t-79 -33.5t-78.5 33.5t-32.5 79.5t32.5 78.5t78.5 32.5zM307 430h-41q52 206 72 318q34 188 47 364q10 168 42 238.5t97 70.5q41 0 66.5 -30t25.5 -78q0 -38 -14 -81.5t-53 -123.5q-104 -213 -180 -463q-27 -92 -62 -215z
" />
    <glyph glyph-name="quotedbl" unicode="&#x22;" horiz-adv-x="860" 
d="M297 803l31 297q19 169 51.5 227.5t107.5 58.5q34 0 55 -18.5t21 -50.5q0 -29 -13 -62.5t-71 -156.5l-137 -295h-45zM666 803l28 293l11 102q7 87 48 137.5t103 50.5q35 0 54.5 -17.5t19.5 -49.5q0 -26 -22.5 -91t-53.5 -132l-141 -293h-47z" />
    <glyph glyph-name="numbersign" unicode="#" horiz-adv-x="1368" 
d="M90 973h326l86 403h121l-86 -403h421l84 403h123l-86 -403h199v-123h-223l-76 -371h299v-123h-324l-84 -401h-122l86 401h-424l-84 -401h-123l84 401h-197v123h223l78 371h-301v123zM512 850l-78 -369h424l76 369h-422z" />
    <glyph glyph-name="dollar" unicode="$" 
d="M602 1427h51l-20 -90h14q63 0 92 -6l23 96h55l-26 -108q97 -34 149.5 -92t52.5 -131q0 -41 -29 -73t-67 -32q-30 0 -54 24t-24 54q0 52 55 90q27 16 27 31q0 19 -35.5 44t-85.5 42l-129 -549q64 -59 89.5 -85.5t50.5 -61.5q61 -82 61 -197q0 -114 -56 -206t-159 -144
q-60 -32 -162 -47l-43 -181h-55l43 177q-37 0 -105 10l-45 -189h-53l49 207q-49 18 -74.5 33.5t-52.5 40.5q-94 85 -94 203q0 54 36 94.5t83 40.5q34 0 58 -24.5t24 -59.5q0 -82 -111 -94q-26 -3 -26 -25q0 -38 49 -87.5t116 -78.5l160 672q-83 70 -120.5 138.5t-37.5 148.5
q0 87 44 159.5t124 116.5q55 31 136 45zM473 881l94 403q-90 -25 -141 -82.5t-51 -132.5q0 -87 98 -188zM623 1294l-105 -452l86 -76l125 522q-62 6 -106 6zM614 571l-127 -534q74 17 120 42.5t85 70.5q64 76 64 167q0 70 -32.5 127t-109.5 127zM479 686l-153 -649
q47 -8 102 -8l139 583z" />
    <glyph glyph-name="percent" unicode="%" horiz-adv-x="1984" 
d="M1343 -63q-87 0 -142.5 75t-55.5 193q0 197 137 334q44 45 96 70.5t97 25.5q89 0 144.5 -75.5t55.5 -197.5q0 -191 -133 -327q-44 -45 -97.5 -71.5t-101.5 -26.5zM1350 -25q43 0 74.5 49.5t60.5 163.5q61 247 61 322q0 40 -18.5 64t-50.5 24q-46 0 -78 -46t-60 -151
q-65 -253 -65 -335q0 -43 20.5 -67t55.5 -24zM516 674q-88 0 -143.5 75.5t-55.5 194.5q0 107 47 207t123.5 161.5t157.5 61.5q86 0 142.5 -76t56.5 -192q0 -107 -47 -207.5t-123.5 -162.5t-157.5 -62zM518 711q43 0 73.5 49t59.5 164q66 258 66 321q0 40 -21 66t-53 26
q-41 0 -72 -45.5t-59 -144.5q-49 -185 -66 -318q0 -5 -1 -13t-1 -11q0 -44 20 -69t54 -25zM1577 1374h86l-1247 -1437h-86z" />
    <glyph glyph-name="ampersand" unicode="&#x26;" horiz-adv-x="1642" 
d="M829 887q73 29 111 51t76 57q114 108 114 242q0 63 -34.5 97t-98.5 34q-101 0 -156 -62t-55 -176q0 -70 43 -243zM680 764q-73 -35 -110.5 -60.5t-73.5 -62.5q-111 -114 -111 -264q0 -138 81.5 -234t201.5 -96q72 0 130 27t144 100q-54 80 -89.5 147t-76.5 168
q-42 100 -96 275zM1513 195l48 -19q-47 -74 -99 -115q-111 -90 -225 -90q-72 0 -133.5 36.5t-130.5 119.5q-65 -55 -104 -79.5t-91 -45.5q-91 -31 -188 -31q-172 0 -287 99t-115 247q0 179 185 330q63 52 127.5 89t163.5 77q-35 135 -35 229q0 182 93 280.5t265 98.5
q121 0 201 -63t80 -158q0 -142 -164 -248q-54 -33 -105.5 -56.5t-150.5 -59.5q41 -142 123 -334q33 -78 88 -180q49 78 72.5 125.5t56.5 130.5q63 153 117 209.5t137 56.5q66 0 109.5 -34.5t43.5 -86.5q0 -42 -29 -72t-69 -30q-34 0 -55 19t-21 48q0 13 9 37q4 12 4 20
q0 15 -11 24t-30 9q-37 0 -73.5 -50.5t-86.5 -176.5q-40 -97 -65.5 -147t-75.5 -134q67 -101 119.5 -140.5t117.5 -39.5q49 0 89.5 23t94.5 82z" />
    <glyph glyph-name="quotesingle" unicode="'" horiz-adv-x="438" 
d="M264 803l31 297l10 100q9 86 49.5 136t100.5 50q34 0 54.5 -18.5t20.5 -50.5q0 -44 -36 -117l-48 -102l-137 -295h-45z" />
    <glyph glyph-name="parenleft" unicode="(" 
d="M418 -430h-39q-52 103 -74.5 164.5t-46.5 161.5q-43 165 -43 315q0 476 297 842q77 95 153 160.5t230 166.5l37 -22q-87 -60 -129.5 -99t-89.5 -100q-132 -168 -224 -444q-71 -215 -114 -423.5t-43 -338.5q0 -110 19.5 -196.5t66.5 -186.5z" />
    <glyph glyph-name="parenright" unicode=")" 
d="M119 -430l-39 20q97 69 147 116.5t103 119.5q50 71 94 160q100 218 179 525.5t79 477.5q0 119 -16.5 197.5t-67.5 193.5h39q50 -102 72.5 -163.5t46.5 -157.5q41 -169 41 -320q0 -236 -79.5 -459.5t-225.5 -396.5q-118 -141 -281 -252q-10 -7 -92 -61z" />
    <glyph glyph-name="asterisk" unicode="*" 
d="M473 997q-4 4 -8 4q-22 0 -92 -79q-12 -14 -25 -27q-40 -37 -66.5 -52.5t-52.5 -15.5q-27 0 -47 19.5t-20 46.5q0 87 186 115q96 15 96 43q0 27 -100 39q-180 27 -180 116q0 27 19 46.5t46 19.5q57 0 156 -111q57 -65 80 -65q2 0 10 4q6 9 6 16q-3 39 -20 82
q-31 84 -31 133q0 44 19 70t53 26q32 0 51.5 -26.5t19.5 -69.5q0 -40 -28 -114q-25 -77 -25 -97q0 -24 15 -24q27 0 98 88q76 88 135 88q28 0 49 -21t21 -49q0 -39 -52.5 -70.5t-140.5 -44.5q-88 -16 -88 -36q0 -34 107 -50q60 -7 85.5 -17t63.5 -38q25 -28 25 -55
q0 -28 -19 -48t-47 -20q-64 0 -147 99q-66 77 -90 77q-5 0 -9 -2q-6 -12 -6 -18v-2q0 -21 19 -80q32 -85 32 -141q0 -41 -19.5 -64.5t-53.5 -23.5q-30 0 -49 25.5t-19 66.5q0 51 29 133q20 55 20 86v2q0 10 -6 16z" />
    <glyph glyph-name="plus" unicode="+" horiz-adv-x="1366" 
d="M137 727h477v479h131v-479h482v-131h-482v-475h-131v475h-477v131z" />
    <glyph glyph-name="comma" unicode="," horiz-adv-x="555" 
d="M135 -307l-12 41q115 48 175.5 93t86.5 105q12 27 12 64q0 63 -26 63q-6 0 -15 -18q-26 -66 -90 -66q-46 0 -76 29.5t-30 75.5q0 54 44 94.5t101 40.5q69 0 115.5 -51t46.5 -129q0 -115 -96 -205q-52 -48 -97 -74.5t-139 -62.5z" />
    <glyph glyph-name="hyphen" unicode="-" horiz-adv-x="555" 
d="M106 487h369v-147h-369v147z" />
    <glyph glyph-name="period" unicode="." horiz-adv-x="555" 
d="M287 219q49 0 84 -34.5t35 -84.5q0 -49 -34.5 -83.5t-84.5 -34.5q-48 0 -82.5 34.5t-34.5 83.5t34.5 84t82.5 35z" />
    <glyph glyph-name="slash" unicode="/" horiz-adv-x="661" 
d="M522 1372h51l-399 -1812h-51z" />
    <glyph glyph-name="zero" unicode="0" 
d="M365 -18q-146 0 -229 114.5t-83 315.5q0 249 94 465q66 154 179 286q135 164 317 164q149 0 228 -119.5t79 -345.5q0 -180 -70 -371t-188 -333q-145 -176 -327 -176zM367 27q107 0 176 77t129 263q55 169 97 378.5t42 311.5q0 118 -43.5 171.5t-140.5 53.5
q-101 0 -171 -88.5t-132 -294.5q-57 -185 -93 -370.5t-36 -290.5q0 -211 172 -211z" />
    <glyph glyph-name="one" unicode="1" 
d="M426 1298l393 31l-297 -1274h246l-14 -55h-607l15 55h211l258 1106q4 16 4 41q0 29 -15.5 40t-54.5 11q-31 0 -90 -6q-15 0 -31 -2l-30 -2z" />
    <glyph glyph-name="two" unicode="2" 
d="M45 0v94l53 43l56 43q298 240 401 336q7 5 16.5 14t24 23.5t25.5 24.5q70 71 103.5 111.5t63.5 86.5q76 120 76 256q0 110 -60 175t-163 65q-114 0 -202.5 -61.5t-88.5 -141.5q0 -15 8.5 -25t20.5 -10h33q31 0 57 -26q27 -24 27 -58q0 -35 -25.5 -58.5t-62.5 -23.5
q-54 0 -86.5 38.5t-32.5 101.5q0 139 109 228t278 89q150 0 250 -83.5t100 -209.5q0 -151 -201 -352q-82 -82 -223 -199q-103 -84 -344 -272l-53 -41l-51 -37v-4h565q33 0 52.5 16.5t31.5 55.5l41 133h53l-100 -332h-752z" />
    <glyph glyph-name="three" unicode="3" 
d="M608 705v2v-5q80 -17 120.5 -33.5t78.5 -47.5q106 -81 106 -220q0 -109 -71.5 -206t-191 -155t-253.5 -58q-142 0 -236.5 69.5t-94.5 173.5q0 53 31.5 87t80.5 34q33 0 55.5 -21.5t22.5 -52.5q0 -34 -17.5 -55.5t-56.5 -34.5q-23 -9 -32 -17t-9 -20q0 -20 29 -45.5
t72 -42.5q74 -30 161 -30q100 0 175.5 56t119.5 163q20 49 33.5 109.5t13.5 99.5q0 104 -63.5 162.5t-177.5 58.5q-56 0 -90 -6q-5 0 -11 -1l-6 -1h-2q-28 2 -39.5 10t-11.5 27q0 43 55 43q1 0 7 -1.5t12 -1.5q36 -8 80 -8q151 0 249.5 106t98.5 267q0 80 -48 126t-132 46
q-82 0 -137.5 -24.5t-55.5 -59.5q0 -10 10 -27q17 -35 17 -59q0 -35 -22.5 -60.5t-53.5 -25.5q-34 0 -55 25.5t-21 68.5q0 86 91.5 145.5t222.5 59.5q152 0 247 -75.5t95 -196.5q0 -79 -51 -151.5t-144 -125.5q-45 -26 -84.5 -39.5t-116.5 -31.5z" />
    <glyph glyph-name="four" unicode="4" 
d="M711 1137l-625 -725h461l168 721zM815 1323h86l-209 -911h178l31 129h53l-82 -348h-51l33 157h-176l-70 -297h164l-12 -53h-467l12 53h158l67 297h-489v80z" />
    <glyph glyph-name="five" unicode="5" 
d="M977 1354h41q-31 -97 -75.5 -140t-113.5 -43h-380q-20 0 -32.5 -11.5t-19.5 -39.5l-106 -352q117 43 229 43q166 0 276.5 -102t110.5 -254q0 -128 -70.5 -237t-191.5 -172.5t-262 -63.5q-139 0 -233.5 67.5t-94.5 167.5q0 58 31.5 96.5t77.5 38.5q37 0 61.5 -24.5
t24.5 -61.5q0 -53 -78 -86q-39 -16 -39 -30q0 -26 27 -50q71 -71 209 -71q137 0 225 94q62 65 100.5 157t38.5 175q0 133 -79 215t-208 82q-68 0 -178 -35l-41 -2l133 444q43 148 146 148h403q21 0 36 10t32 37z" />
    <glyph glyph-name="six" unicode="6" 
d="M397 29q110 0 187 80q99 111 153 362q17 87 17 125q0 101 -54 166t-139 65q-57 0 -117.5 -28.5t-107.5 -77.5q-68 -71 -104.5 -191.5t-36.5 -273.5q0 -109 52 -168t150 -59zM969 1384v-45q-101 -19 -153 -35t-114 -47q-111 -57 -190 -139q-77 -77 -135 -184
q-30 -58 -90 -199l4 -4q78 85 146.5 118.5t160.5 33.5q141 0 231.5 -99t90.5 -254q0 -217 -168 -385q-73 -76 -165.5 -120.5t-174.5 -44.5q-158 0 -263.5 126t-105.5 316q0 213 126 431.5t331 363.5q152 112 354 151q58 9 115 16z" />
    <glyph glyph-name="seven" unicode="7" 
d="M176 987l172 324h711v-62q-158 -224 -199 -280q-226 -319 -301.5 -471t-75.5 -291v-17q2 -16 2 -43v-14q2 -8 2 -16q0 -64 -27 -99.5t-77 -35.5q-48 0 -75 29.5t-27 84.5q0 85 47 168q106 185 413 617l97 133l106 151h-545q-40 0 -67 -16.5t-49 -54.5l-58 -107h-49z" />
    <glyph glyph-name="eight" unicode="8" 
d="M567 711q119 0 189 73q44 50 75 141t31 173q0 88 -51 136t-143 48q-112 0 -162 -53q-37 -40 -69.5 -113.5t-49.5 -157.5q-8 -27 -8 -55q0 -88 51 -140t137 -52zM424 27q63 0 121 20.5t90 54.5q47 51 81 156t34 203q0 88 -63.5 144.5t-160.5 56.5q-56 0 -110 -21.5
t-86 -56.5q-55 -55 -92 -157t-37 -196q0 -93 60.5 -148.5t162.5 -55.5zM639 680v2v-4q68 -22 102 -39.5t68 -48.5q98 -85 98 -219q0 -104 -65.5 -193.5t-176 -142.5t-237.5 -53q-163 0 -274 92t-111 227q2 97 62 185t165 145q44 25 84 37t115 24v4q-54 23 -82.5 40t-56.5 44
q-80 83 -80 199q0 145 124 245.5t302 100.5q141 0 236.5 -82.5t95.5 -204.5q0 -85 -54.5 -164.5t-146.5 -132.5q-35 -22 -67.5 -33.5t-100.5 -27.5z" />
    <glyph glyph-name="nine" unicode="9" 
d="M463 481q100 0 182 73t129 200t47 280q0 117 -52 182.5t-146 65.5q-52 0 -104 -23t-89 -63q-96 -106 -141 -334q-21 -107 -21 -153q0 -103 53 -165.5t142 -62.5zM53 -78l-6 45q103 20 159.5 38.5t125.5 53.5q100 53 164 117q95 92 161 227q25 47 68 160l-4 4
q-77 -77 -148 -111t-153 -34q-138 0 -230 99.5t-92 248.5q0 142 72 270.5t191 206.5t249 78q154 0 256.5 -123t102.5 -309q0 -219 -127.5 -443.5t-331.5 -367.5q-167 -116 -352 -148q-38 -6 -105 -12z" />
    <glyph glyph-name="colon" unicode=":" horiz-adv-x="661" 
d="M428 842q46 0 78.5 -32.5t32.5 -76.5q0 -46 -32.5 -78t-78.5 -32q-44 0 -76.5 32.5t-32.5 77.5q0 44 32.5 76.5t76.5 32.5zM274 201q46 0 78.5 -32.5t32.5 -76.5q0 -46 -32.5 -78t-78.5 -32q-44 0 -76 32t-32 78q0 44 32 76.5t76 32.5z" />
    <glyph glyph-name="semicolon" unicode=";" horiz-adv-x="661" 
d="M162 -305l-15 41q83 32 123 54t74 56q76 70 76 164q0 33 -17 53q-10 5 -12 5q-5 0 -14 -21q-23 -70 -96 -70q-41 0 -70 31.5t-29 75.5q0 54 41 92.5t99 38.5q71 0 117 -53t46 -135q0 -112 -112 -215q-44 -39 -86 -62.5t-125 -54.5zM455 844q44 0 76 -32.5t32 -76.5
q0 -46 -32 -78t-76 -32q-45 0 -77 32.5t-32 77.5q0 44 32.5 76.5t76.5 32.5z" />
    <glyph glyph-name="less" unicode="&#x3c;" horiz-adv-x="1366" 
d="M1225 147l-1084 457v119l1084 457v-144l-908 -372l908 -375v-142z" />
    <glyph glyph-name="equal" unicode="=" horiz-adv-x="1366" 
d="M139 967h1088v-133h-1088v133zM139 498h1088v-131h-1088v131z" />
    <glyph glyph-name="greater" unicode="&#x3e;" horiz-adv-x="1366" 
d="M139 1180l1086 -459v-117l-1086 -457v142l910 373l-910 374v144z" />
    <glyph glyph-name="question" unicode="?" horiz-adv-x="874" 
d="M354 395h-43q3 148 35 226q31 70 88.5 119.5t179.5 111.5q79 39 108 57t71 56q39 41 56 81t17 91q0 100 -82.5 168.5t-203.5 68.5q-53 0 -101.5 -17t-79.5 -46q-22 -19 -22 -43q0 -14 29 -37q51 -34 51 -80q0 -34 -24 -59t-58 -25q-40 0 -67 32t-27 81q0 98 91.5 168.5
t219.5 70.5q142 0 247 -93t105 -220q0 -76 -32 -150.5t-91 -134.5q-80 -80 -241 -149q-79 -35 -107 -51.5t-70 -53.5q-28 -29 -37.5 -64.5t-11.5 -107.5zM272 197q46 0 78.5 -32.5t32.5 -78.5t-32.5 -78.5t-78.5 -32.5q-45 0 -77.5 33t-32.5 78q0 46 32 78.5t78 32.5z" />
    <glyph glyph-name="at" unicode="@" horiz-adv-x="1884" 
d="M1411 958l-117 -399l-59 -215q-30 -105 -33 -160v-4q0 -34 21.5 -56t56.5 -22q54 0 124.5 42t121.5 104q81 98 127.5 232t46.5 270q0 177 -81 318.5t-225.5 221.5t-324.5 80q-232 0 -416 -104t-307 -305q-151 -253 -151 -547q0 -171 58 -319t160 -252.5t246 -164
t312 -59.5q278 0 486.5 142.5t324.5 410.5h57q-91 -278 -327 -446t-537 -168q-249 0 -449 114t-313 315.5t-113 452.5q0 206 73.5 388t200.5 312.5t305 206.5t378 76q206 0 366 -87t248 -243.5t88 -357.5q0 -187 -73.5 -349.5t-198.5 -258.5t-270 -96q-83 0 -122.5 35
t-39.5 108q0 47 18 137l-4 4q-55 -70 -83.5 -101t-76.5 -75q-55 -51 -115.5 -79.5t-111.5 -28.5q-80 0 -132 67t-52 174q0 120 71.5 269t182.5 262q162 162 299 162q141 0 168 -140h4l30 111zM1061 918q-70 0 -148.5 -76.5t-150.5 -214.5q-46 -92 -75.5 -182t-29.5 -142
q0 -68 32.5 -109.5t84.5 -41.5q40 0 86.5 24t87.5 66q44 42 87 98.5t65 99.5q36 67 67 205q17 67 17 119q0 71 -33 112.5t-90 41.5z" />
    <glyph glyph-name="A" unicode="A" horiz-adv-x="1536" 
d="M1139 1116l-451 -567h379l76 563zM1317 1419h45l-180 -1364h204l-12 -55h-557l14 55h173l57 439h-416l-350 -439h211l-12 -55h-441l15 55h159z" />
    <glyph glyph-name="B" unicode="B" horiz-adv-x="1323" 
d="M731 1337l-151 -579h219q67 0 129 21t94 55q46 47 81.5 148t35.5 181q0 85 -51.5 129.5t-149.5 44.5h-207zM567 702l-170 -647h244q169 0 254 88q54 54 88.5 143.5t34.5 174.5q0 115 -67.5 178t-190.5 63h-193zM342 1393h588q167 0 279 -91t112 -227q0 -181 -172 -280
q-46 -27 -91.5 -42t-129.5 -30v-4q72 -24 108 -42t72 -50q106 -90 106 -238q0 -178 -143 -283.5t-385 -105.5h-633l13 55h147l330 1282h-213z" />
    <glyph glyph-name="C" unicode="C" horiz-adv-x="1323" 
d="M1120 4h-45q-24 38 -63 74q-103 -64 -168.5 -86.5t-153.5 -22.5q-128 0 -232 69t-163 190t-59 270q0 142 60 300t164.5 296t231.5 225q153 104 305 104q91 0 151.5 -29.5t123.5 -105.5q47 47 78 94h47l-99 -376h-53q4 74 4 102q0 126 -64.5 194t-183.5 68
q-145 0 -241 -104q-206 -218 -297 -668q-31 -155 -31 -270q0 -141 69.5 -223t188.5 -82q153 0 293 116q51 42 87 87t93 136h49z" />
    <glyph glyph-name="D" unicode="D" horiz-adv-x="1429" 
d="M731 1337l-334 -1282h273q87 0 166.5 30.5t126.5 82.5q164 176 245 582q29 151 29 233q0 183 -88.5 268.5t-276.5 85.5h-141zM360 1393h517q243 0 392.5 -149.5t149.5 -393.5q0 -174 -57.5 -331.5t-155.5 -271t-234.5 -180.5t-287.5 -67h-635l14 55h152l328 1282h-195z
" />
    <glyph glyph-name="E" unicode="E" horiz-adv-x="1323" 
d="M395 1393h1016l-84 -371h-51q16 96 16 143q0 92 -38 132t-126 40h-360l-152 -583h154q167 0 215 213h55l-139 -543h-55q26 97 26 147q0 127 -145 127h-125l-166 -643h359q144 0 247 103q45 46 74 95t70 146h53l-139 -399h-1045l13 55h184l332 1282h-203z" />
    <glyph glyph-name="F" unicode="F" horiz-adv-x="1193" 
d="M358 1393h1012l-80 -371h-51q10 88 10 121q0 103 -47 148.5t-153 45.5h-314l-151 -581h94q124 0 181 43.5t91 165.5h56l-140 -541h-55q29 91 29 143q0 133 -127 133h-144l-166 -645h220l-13 -55h-567l14 55h160l334 1282h-207z" />
    <glyph glyph-name="G" unicode="G" horiz-adv-x="1429" 
d="M1255 1309l97 82h45l-94 -367h-50q0 13 1 34t1 29q0 128 -76 205.5t-200 77.5q-71 0 -141 -30.5t-119 -84.5q-206 -215 -293 -634q-27 -149 -27 -236q0 -169 77 -265.5t212 -96.5q142 0 223 110q46 65 70.5 126.5t56.5 195.5h-215l15 55h575l-14 -55h-139
q-28 -103 -52 -157t-67 -110q-83 -106 -202.5 -162.5t-260.5 -56.5q-209 0 -345 148.5t-136 374.5t122.5 457.5t309.5 357.5q174 116 336 116q93 0 160 -26.5t130 -87.5z" />
    <glyph glyph-name="H" unicode="H" horiz-adv-x="1536" 
d="M360 1393h596l-12 -56h-207l-147 -575h584l147 575h-207l19 56h583l-12 -56h-199l-329 -1282h204l-10 -55h-598l12 55h207l168 652h-584l-169 -652h204l-12 -55h-551l14 55h160l330 1282h-203z" />
    <glyph glyph-name="I" unicode="I" horiz-adv-x="768" 
d="M358 1393h586l-12 -56h-199l-330 -1282h207l-10 -55h-551l10 55h162l328 1282h-207z" />
    <glyph glyph-name="J" unicode="J" 
d="M580 1393h585l-14 -56h-197l-301 -1167q-46 -181 -147.5 -282t-235.5 -101q-92 0 -158.5 49.5t-66.5 118.5q0 57 30.5 88t84.5 31q40 0 68 -25.5t28 -62.5q0 -46 -35 -84q-18 -21 -18 -33q0 -14 15 -22.5t38 -8.5q129 0 199 279l315 1220h-205z" />
    <glyph glyph-name="K" unicode="K" horiz-adv-x="1536" 
d="M397 1393h588l-14 -56h-199l-330 -1282h222l-13 -55h-596l15 55h186l332 1282h-205zM1130 1393h531l-16 -56h-211l-631 -530l479 -752h182l-12 -55h-604l16 55h205l-436 684l719 594v4h-236z" />
    <glyph glyph-name="L" unicode="L" horiz-adv-x="1193" 
d="M373 1393h592l-15 -56h-213l-327 -1282h288q137 0 242 97q56 52 89.5 98t92.5 153h49l-122 -403h-1010l12 55h170l332 1282h-197z" />
    <glyph glyph-name="M" unicode="M" horiz-adv-x="1961" 
d="M430 1393h430l129 -1121h4l703 1121h440l-12 -56h-201l-332 -1282h209l-12 -55h-598l14 55h203l332 1282h-17l-837 -1337h-41l-156 1337h-14l-334 -1282h211l-12 -55h-467l14 55h199l336 1282h-203z" />
    <glyph glyph-name="N" unicode="N" horiz-adv-x="1536" 
d="M389 1393h383l402 -1082h4l262 1026h-207l12 56h422l-12 -56h-162l-350 -1357h-27l-493 1327h-5l-319 -1252h219l-14 -55h-459l16 55h181l331 1282h-198z" />
    <glyph glyph-name="O" unicode="O" horiz-adv-x="1429" 
d="M932 1370q-82 0 -153.5 -27.5t-116.5 -78.5q-85 -94 -156.5 -272.5t-120.5 -422.5q-31 -152 -31 -243q0 -303 289 -303q281 0 412 350q70 188 117 389t47 315q0 138 -76 215.5t-211 77.5zM936 1425q212 -6 339.5 -149t127.5 -375q0 -181 -83.5 -377t-223.5 -342
q-207 -216 -455 -213q-214 0 -345.5 142t-131.5 374t127.5 473t316.5 367q152 100 318 100h10z" />
    <glyph glyph-name="P" unicode="P" horiz-adv-x="1323" 
d="M750 1337l-164 -645h188q201 0 291 90q56 59 91.5 159t35.5 198t-57 148t-168 50h-217zM375 1393h602q188 0 300 -92.5t112 -247.5q0 -117 -69 -212.5t-191.5 -149.5t-272.5 -54h-285l-151 -582h213l-17 -55h-559l11 55h165l332 1282h-203z" />
    <glyph glyph-name="Q" unicode="Q" horiz-adv-x="1429" 
d="M924 1370q-83 -3 -155.5 -32.5t-117.5 -80.5q-77 -88 -146.5 -264.5t-121.5 -419.5q-31 -155 -31 -249q0 -146 74.5 -223.5t212.5 -77.5q143 0 244.5 84.5t167.5 259.5q71 188 119.5 394.5t48.5 321.5q0 133 -76.5 210t-210.5 77h-8zM1071 -410l-12 -55q-90 -20 -152 -20
q-180 0 -292.5 96t-112.5 248q0 56 16 123q-65 19 -98 34.5t-68 44.5q-92 73 -140 182t-48 242q0 192 87 392.5t236 349.5q199 196 449 196q207 0 336 -145.5t129 -378.5q0 -221 -116.5 -448t-301.5 -365q-59 -45 -111 -68t-141 -43q-20 -95 -20 -155q0 -125 56 -185.5
t171 -60.5q42 0 133 16z" />
    <glyph glyph-name="R" unicode="R" horiz-adv-x="1536" 
d="M788 1337l-141 -561h230q161 0 258.5 107t97.5 284q0 89 -48 129.5t-151 40.5h-246zM414 1393h661q161 0 262 -85t101 -221q0 -88 -61.5 -169.5t-159.5 -124.5q-119 -51 -297 -62v-4q6 0 14 -4q1 0 2.5 -0.5l4.5 -1.5t5 -2q53 -22 80.5 -39.5t60.5 -50.5
q64 -83 81.5 -136t23.5 -184q6 -135 38 -196.5t97 -61.5q54 0 146 51l28 -41q-61 -42 -109 -57.5t-116 -15.5q-138 0 -207 69q-41 39 -61.5 109t-26.5 188q-6 138 -21 188.5t-71 121.5q-65 59 -135 59h-121l-170 -668h217l-14 -55h-607l13 55h207l325 1282h-205z" />
    <glyph glyph-name="S" unicode="S" horiz-adv-x="1087" 
d="M1034 1305l90 88h47l-90 -365h-43q-4 96 -26 156t-70 108q-78 78 -192 78q-119 0 -208 -73t-89 -171q0 -80 55 -141t197 -137q183 -98 249 -182q66 -85 66 -195q0 -138 -65 -253.5t-177.5 -182t-247.5 -66.5q-93 0 -166 27t-155 90q-51 -25 -100 -86h-58l82 399h53
q0 -101 20 -162t70 -114q95 -98 252 -98q143 0 250 97.5t107 229.5q0 91 -63.5 163t-217.5 155q-73 39 -101 57.5t-69 54.5q-60 65 -86 120.5t-26 119.5q0 107 59 199.5t159 147t214 54.5q84 0 148.5 -27t131.5 -91z" />
    <glyph glyph-name="T" unicode="T" horiz-adv-x="1323" 
d="M385 1393h1112l-86 -398h-53q14 92 14 129q0 109 -45 161t-137 52h-174l-328 -1282h213l-12 -55h-621l13 55h221l329 1282h-155q-116 0 -203 -100q-39 -46 -70.5 -92.5t-93.5 -149.5h-55z" />
    <glyph glyph-name="U" unicode="U" horiz-adv-x="1533" 
d="M389 1393h598l-14 -56h-203l-235 -911q-21 -77 -21 -150q0 -120 68.5 -182.5t199.5 -62.5q170 0 272.5 99.5t159.5 320.5l232 886h-205l14 56h457l-14 -56h-199l-235 -911q-62 -236 -181.5 -346.5t-314.5 -110.5t-314.5 95t-119.5 249q0 55 16 117l234 907h-207z" />
    <glyph glyph-name="V" unicode="V" horiz-adv-x="1429" 
d="M367 1393h534l-12 -54h-180l-138 -1060l4 -5l830 1063h-209l10 56h420v-54h-156l-1071 -1370h-47l178 1368h-174z" />
    <glyph glyph-name="W" unicode="W" horiz-adv-x="1961" 
d="M1223 1337l-41 -321l4 -4l258 325h-221zM707 1337l-132 -1073l5 -4l393 494l69 583h-335zM367 1393h1319l-13 -56h-160l-342 -426l-75 -628l4 -4l829 1058h-174l14 56h385l-12 -56h-147l-1075 -1368h-43l84 678l-5 4l-548 -682h-46l164 1368h-170z" />
    <glyph glyph-name="X" unicode="X" horiz-adv-x="1642" 
d="M430 1393h584l-17 -56h-186l176 -508l469 508h-182l14 56h414l-14 -56h-160l-520 -565l247 -717h224l-11 -55h-620l14 55h211l-196 576l-533 -576h219l-12 -55h-459l14 55h168l582 631l-229 651h-215z" />
    <glyph glyph-name="Y" unicode="Y" horiz-adv-x="1536" 
d="M387 1393h580l-15 -56h-194l205 -678l501 678h-213l15 56h463l-17 -56h-180l-551 -743l-137 -539h221l-12 -55h-621l10 55h215l140 543l-224 739h-200z" />
    <glyph glyph-name="Z" unicode="Z" horiz-adv-x="1193" 
d="M438 1393h871v-45l-1049 -1293h420q127 0 223 90q51 49 83 96.5t85 149.5h49l-119 -391h-962v57l1042 1280h-358q-103 0 -166 -57q-47 -43 -77 -86t-95 -158h-53z" />
    <glyph glyph-name="bracketleft" unicode="[" 
d="M580 1346h368v-35h-131q-41 0 -76 -30.5t-47 -76.5l-385 -1454q-8 -24 -8 -53q0 -35 24 -51.5t76 -16.5h97l-13 -32h-368z" />
    <glyph glyph-name="backslash" unicode="\" horiz-adv-x="661" 
d="M88 1372h51l400 -1812h-50z" />
    <glyph glyph-name="bracketright" unicode="]" 
d="M516 1346h373l-463 -1749h-371v34h88q79 0 116.5 28t57.5 103l383 1440q5 18 5 41q0 70 -103 70h-94z" />
    <glyph glyph-name="asciicircum" unicode="^" horiz-adv-x="864" 
d="M516 1386l426 -716h-92l-350 587l-350 -587h-95l432 716h29z" />
    <glyph glyph-name="underscore" unicode="_" horiz-adv-x="1024" 
d="M1040 -442h-1056v84h1056v-84z" />
    <glyph glyph-name="grave" unicode="`" horiz-adv-x="681" 
d="M745 1014l-16 -31l-90 33l-133 43q-144 47 -192 78t-48 75q0 34 21.5 58t52.5 24t85 -33t163 -120z" />
    <glyph glyph-name="a" unicode="a" horiz-adv-x="1087" 
d="M598 795q-45 0 -94 -22t-82 -56q-119 -131 -184 -420q-15 -67 -15 -121q0 -67 41.5 -110t106.5 -43q80 0 152 60.5t118 166.5q45 98 92 303q2 9 8 51q4 20 4 29q0 70 -42 116t-105 46zM815 840h137l-194 -699q-6 -18 -6 -41q0 -29 13 -46t36 -17q51 0 109 73t102 193h45
q-36 -98 -61 -145.5t-64 -91.5q-80 -89 -168 -89q-135 0 -141 144q-71 -82 -128 -113t-139 -31q-120 0 -198 83.5t-78 211.5q0 104 53 219.5t141 200.5q69 68 154 108t158 40q76 0 117.5 -31t72.5 -111h4z" />
    <glyph glyph-name="b" unicode="b" horiz-adv-x="978" 
d="M322 457l-11 -41q-2 -7 -6 -21.5t-6 -21.5q-41 -145 -41 -189q0 -73 44.5 -116t121.5 -43q38 0 85 21t75 50q56 60 103.5 172t76.5 252q14 60 14 111q0 74 -38 119t-101 45q-107 0 -190.5 -89t-126.5 -249zM588 1409l-195 -702l4 -5q101 136 248 136q120 0 199.5 -85.5
t79.5 -215.5q0 -99 -51.5 -214.5t-129.5 -193.5q-71 -69 -159.5 -109t-171.5 -40q-123 0 -202 65t-79 166q0 41 12 84l293 1042h-172l19 56h153l39 4l35 2q11 2 25.5 3.5t17.5 2.5l16 4h19z" />
    <glyph glyph-name="c" unicode="c" horiz-adv-x="768" 
d="M659 225h48q-34 -60 -57 -90t-58 -61q-105 -94 -217 -94q-125 0 -208 89t-83 222q0 115 83 257t193 216q112 74 213 74q85 0 141 -48.5t56 -121.5q0 -36 -22.5 -63t-53.5 -27q-34 0 -56 21.5t-22 55.5q0 50 52 70q20 9 20 16q0 21 -39 37q-39 17 -69 17q-101 0 -160 -68
q-110 -125 -182 -453q-13 -67 -13 -96q0 -72 40.5 -111.5t113.5 -39.5q80 0 143.5 45t136.5 153z" />
    <glyph glyph-name="d" unicode="d" horiz-adv-x="1087" 
d="M580 793q-96 -3 -158 -68q-122 -135 -189 -438q-12 -67 -12 -111q0 -74 36 -112.5t105 -38.5q81 0 156.5 61t116.5 160q54 133 94 309q12 47 12 80q0 69 -44 113.5t-113 44.5h-4zM1065 1409h47l-369 -1298q-4 -8 -4 -25q0 -24 12 -37.5t33 -13.5q54 0 109.5 71t101.5 199
h45q-33 -94 -60.5 -147t-66.5 -97q-75 -81 -168 -81q-62 0 -94 32.5t-39 102.5q-60 -71 -119 -103t-128 -32q-130 0 -207.5 82.5t-77.5 222.5q0 106 49 213t135 192q69 67 157 107.5t163 40.5q138 0 186 -146h4l182 645h-213l19 56h180q45 0 123 16z" />
    <glyph glyph-name="e" unicode="e" horiz-adv-x="874" 
d="M322 461h88q135 0 225 60.5t90 152.5q0 54 -32 85.5t-89 31.5q-95 0 -172 -93q-40 -53 -61 -98.5t-49 -138.5zM416 418h-109q-37 -121 -37 -189q0 -90 54 -147t139 -57q94 0 190 81q37 33 59.5 62t55.5 84h49q-41 -72 -68.5 -107.5t-68.5 -72.5q-106 -92 -213 -92
q-155 0 -247.5 93.5t-92.5 248.5q0 92 42 184t120 170q75 75 166.5 118.5t173.5 43.5q97 0 161 -49t64 -123q0 -106 -126 -177t-312 -71z" />
    <glyph glyph-name="f" unicode="f" horiz-adv-x="768" 
d="M549 819h205l-17 -57h-205l-137 -506q-67 -241 -139 -395t-164 -246q-44 -46 -102 -74t-107 -28q-69 0 -113 35t-44 90q0 38 23.5 64t57.5 26q32 0 55 -21.5t23 -52.5q0 -25 -16 -49q-8 -19 -8 -27q0 -20 33 -20q76 0 143.5 92.5t114.5 263.5l235 848h-174l16 57h174
q73 196 119 287q68 130 146 205q107 104 215 104q75 0 122.5 -36.5t47.5 -94.5q0 -43 -25 -70.5t-65 -27.5q-34 0 -56 24t-22 62q0 28 22 59q8 11 8 19q0 20 -43 20q-100 0 -182 -145q-59 -105 -108 -283q-12 -40 -33 -123z" />
    <glyph glyph-name="g" unicode="g" horiz-adv-x="1087" 
d="M561 315q78 3 123 54q40 43 72 130t32 152q0 66 -37 105t-100 39q-69 0 -119 -50q-41 -44 -73.5 -132.5t-32.5 -157.5q0 -66 34 -103t97 -37h4zM371 -4l-54 4q-190 -87 -190 -227q0 -92 79 -150.5t204 -58.5q108 0 204 35t152.5 94.5t56.5 126.5q0 37 -20 68t-55 46
q-39 19 -107 31t-219 25q-4 1 -20.5 2.5t-30.5 3.5zM901 664q25 91 61 131.5t91 40.5q35 0 59.5 -22t24.5 -54q0 -34 -21 -56t-53 -22q-40 0 -57 45q-9 18 -15 18q-30 0 -45 -100q-13 -86 -40.5 -147t-80.5 -123q-114 -105 -264 -105q-52 0 -90 12.5t-86 45.5
q-73 -17 -112.5 -46.5t-39.5 -66.5q0 -43 67 -67t212 -33q140 -7 209.5 -25t126.5 -61q32 -33 44.5 -66t12.5 -78q0 -155 -146.5 -260.5t-363.5 -105.5q-164 0 -267 70t-103 180q0 76 53.5 136t167.5 113q-67 32 -94 63t-27 77q0 66 53 115t166 89q-57 69 -57 154
q0 131 108 226.5t256 95.5q88 0 147.5 -41t102.5 -133z" />
    <glyph glyph-name="h" unicode="h" horiz-adv-x="1087" 
d="M639 1409l-221 -774l4 -4q46 59 74.5 87.5t66.5 55.5q84 64 180 64q73 0 119.5 -42t46.5 -108q0 -40 -20 -110l-125 -404q-16 -52 -16 -80q0 -26 11 -37.5t36 -11.5q114 0 219 262h43q-36 -97 -62 -143t-73 -98q-83 -86 -179 -86q-60 0 -95.5 30.5t-35.5 81.5q0 29 9 53
l149 492q8 24 8 55q0 35 -20.5 55.5t-57.5 20.5q-84 0 -157 -70q-58 -53 -108.5 -122.5t-61.5 -108.5l-135 -467h-138l381 1337h-182l12 56h168q23 0 39 2q28 3 29 4l45 6q5 0 10 1l6 1q5 0 10 1l5 1h16z" />
    <glyph glyph-name="i" unicode="i" horiz-adv-x="661" 
d="M510 834l-203 -709q-6 -18 -6 -37q0 -45 47 -45q68 0 135 98q41 58 88 168h41q-29 -86 -52 -129.5t-64 -93.5q-95 -109 -193 -109q-60 0 -95.5 33.5t-35.5 89.5q0 26 10 64l172 598h-190l16 57h80l135 6l47 4l54 5h14zM526 1331q37 0 63.5 -26.5t26.5 -63.5t-26.5 -63.5
t-63.5 -26.5t-63.5 26.5t-26.5 63.5t26.5 63.5t63.5 26.5z" />
    <glyph glyph-name="j" unicode="j" horiz-adv-x="555" 
d="M481 834l-225 -867q-36 -140 -77 -227t-97 -146q-33 -35 -76 -55t-82 -20q-54 0 -90.5 28.5t-36.5 69.5q0 32 23.5 54t58.5 22q26 0 44 -24t18 -58v-4v-6q0 -29 24 -29q28 0 51.5 43t49.5 143l264 1004h-174l16 57h96l43 2l41 4q44 3 56 6q18 3 22 3h51zM500 1331
q37 0 63.5 -26.5t26.5 -63.5t-26.5 -63.5t-63.5 -26.5t-63.5 26.5t-26.5 63.5t26.5 63.5t63.5 26.5z" />
    <glyph glyph-name="k" unicode="k" 
d="M627 1409l-254 -893q4 0 11 1.5t13 2.5q58 10 72 10h12q57 0 172 166q55 83 93.5 112.5t91.5 29.5q52 0 88.5 -32t36.5 -77q0 -35 -21.5 -61.5t-50.5 -26.5q-31 0 -53.5 19.5t-22.5 48.5q0 25 19 53q10 13 10 20q0 9 -21 9q-31 0 -60 -26t-75 -95q-40 -61 -63 -88
t-68 -66q68 -32 99.5 -84.5t31.5 -132.5q0 -56 -14 -123q-10 -62 -10 -72q0 -55 38 -55q44 0 100.5 63t108.5 173h47q-39 -86 -67 -130t-72 -89q-89 -86 -176 -86q-57 0 -88 32.5t-31 93.5q0 58 33 164q31 92 31 136q0 32 -19.5 52.5t-56.5 24.5q-61 -37 -115 -37
q-9 0 -43 9l-129 -455h-139l383 1337h-174l16 56h117l55 4l49 6q9 0 20 1t13 1l10 2t8 1.5t5 0.5h39z" />
    <glyph glyph-name="l" unicode="l" horiz-adv-x="661" 
d="M614 1409h52l-361 -1268q-6 -24 -6 -47q0 -47 41 -47q34 0 79.5 27.5t80.5 70.5q29 33 45.5 64.5t38.5 93.5h47q-32 -83 -56.5 -125.5t-64.5 -85.5q-50 -54 -109 -84.5t-114 -30.5q-57 0 -90 31.5t-33 85.5q0 26 6 53l338 1190h-174l14 56h152q40 0 114 16z" />
    <glyph glyph-name="m" unicode="m" horiz-adv-x="1536" 
d="M483 834l-53 -189l4 -4q36 50 60 76t57 51q91 70 194 70q68 0 109 -40t41 -106q0 -17 -4 -53l4 -4q44 56 71 83.5t62 53.5q89 66 184 66q72 0 114 -40.5t42 -109.5q0 -45 -16 -98l-142 -449q-10 -30 -10 -57q0 -15 10 -25t25 -10q62 0 124 69.5t114 196.5h43
q-32 -88 -57.5 -134.5t-67.5 -92.5q-102 -108 -203 -108q-57 0 -89 29t-32 81q0 37 12 74l144 450q16 53 16 88q0 74 -70 74q-37 0 -85.5 -26t-90.5 -70q-51 -48 -116 -152q-25 -43 -35 -73l-129 -455h-140l177 614q14 61 14 88q0 76 -66 76q-92 0 -194.5 -116t-145.5 -269
l-112 -393h-135l217 762h-174l12 57h147q20 0 45 4q11 1 20.5 2t13.5 1.5t5 0.5q40 7 41 7h45z" />
    <glyph glyph-name="n" unicode="n" horiz-adv-x="1087" 
d="M485 834l-59 -199l4 -4q42 57 66.5 84t60.5 55q86 68 199 68q78 0 123 -40.5t45 -109.5q0 -44 -15 -90l-145 -457q-10 -33 -10 -51q0 -47 45 -47q52 0 112 70q38 44 59.5 84t47.5 116h45q-27 -87 -51 -133t-64 -92q-92 -108 -200 -108q-59 0 -93 31.5t-34 86.5
q0 31 10 64l145 461q12 37 12 77q0 34 -22 55t-59 21q-80 0 -172 -92q-59 -57 -107.5 -137.5t-67.5 -151.5l-110 -395h-141l217 762h-162l16 57h148q43 0 112 15h45z" />
    <glyph glyph-name="o" unicode="o" 
d="M410 25q109 3 174 71q102 108 161 379q19 93 19 148q0 80 -43 125t-119 45q-111 0 -182 -80q-52 -56 -89.5 -150.5t-68.5 -243.5q-18 -83 -18 -126q0 -78 42.5 -123t116.5 -45h7zM608 838q128 0 213.5 -93.5t85.5 -234.5q0 -100 -42.5 -197.5t-110.5 -170t-159.5 -117.5
t-184.5 -45q-137 0 -222.5 93t-85.5 242q0 94 44 193t122 178q152 152 340 152z" />
    <glyph glyph-name="p" unicode="p" 
d="M342 512l-70 -244q-12 -40 -12 -78q0 -78 44 -122.5t122 -44.5q146 0 233 170q49 98 86 230t37 210q0 162 -137 162q-89 0 -180 -84.5t-123 -198.5zM397 834h35l-37 -127l4 -5q66 74 124.5 105t131.5 31q116 0 192.5 -88.5t76.5 -221.5q0 -136 -71.5 -264t-188 -206
t-240.5 -78q-74 0 -120.5 30.5t-78.5 100.5l-155 -539h178l-15 -55h-464l16 55h149l345 1190h-125l16 57h125h8h10q55 5 84 15z" />
    <glyph glyph-name="q" unicode="q" 
d="M668 291l71 252q13 47 13 88q0 75 -43 119.5t-115 44.5q-166 0 -272 -254q-41 -98 -66 -196t-25 -161q0 -77 35 -118t99 -41q99 0 185 75.5t118 190.5zM459 -428l155 528l-4 4q-104 -124 -239 -124q-120 0 -203.5 86t-83.5 210q0 103 50.5 215t137.5 199q70 72 153 110
t167 38q70 0 115 -29.5t79 -97.5l31 108h137l-356 -1247h172l-14 -55h-484l17 55h170z" />
    <glyph glyph-name="r" unicode="r" horiz-adv-x="661" 
d="M442 834l-61 -218l4 -4q67 119 123 173.5t110 54.5q41 0 67 -25.5t26 -66.5q0 -32 -24 -55t-58 -23q-48 0 -70 49q-7 20 -20 20q-17 0 -37 -26q-51 -64 -98.5 -157t-67.5 -167l-113 -389h-137l219 762h-151l16 55h98q35 0 133 14h9l10 3h22z" />
    <glyph glyph-name="s" unicode="s" horiz-adv-x="768" 
d="M563 440q88 -94 88 -190q0 -118 -93 -194t-236 -76q-104 0 -182.5 53.5t-78.5 124.5q0 35 21.5 59.5t52.5 24.5q29 0 48.5 -18.5t19.5 -47.5q0 -21 -17 -49q-14 -22 -14 -35q0 -28 49 -48.5t115 -20.5q83 0 146 48t63 111q0 47 -31.5 87t-124.5 110q-98 75 -133 122.5
t-35 106.5q0 100 77 165t194 65q94 0 153.5 -38.5t59.5 -101.5q0 -29 -20.5 -50t-49.5 -21q-28 0 -45 19.5t-17 51.5q0 3 2 11.5t3 13.5q2 8 2 18q0 23 -29.5 38.5t-71.5 15.5q-66 0 -114 -32.5t-48 -76.5q0 -37 25 -68.5t92 -76.5q91 -65 129 -101z" />
    <glyph glyph-name="t" unicode="t" horiz-adv-x="661" 
d="M395 1040h133l-61 -221h151l-14 -57h-151l-187 -641q-4 -28 -4 -39q0 -43 45 -43q32 0 73.5 25t78.5 65q35 39 55.5 77t48.5 113h45q-34 -92 -60 -139.5t-67 -91.5q-102 -111 -213 -111q-61 0 -98 33.5t-37 89.5q0 33 8 60l172 602h-141l16 57h142z" />
    <glyph glyph-name="u" unicode="u" horiz-adv-x="1087" 
d="M459 834h33l-195 -641q-14 -47 -14 -84q0 -29 20 -48.5t51 -19.5q38 0 93.5 31.5t107.5 83.5q59 58 97.5 128.5t68.5 172.5l100 362h137l-192 -686q-8 -24 -8 -47q0 -45 39 -45q78 0 153 117q38 55 72 151h45q-30 -89 -53.5 -134t-65.5 -95q-86 -100 -194 -100
q-62 0 -94.5 29.5t-32.5 86.5q0 33 16 82l-4 4q-75 -92 -133 -135q-88 -67 -193 -67q-74 0 -118.5 42t-44.5 111q0 36 12 74l170 555h-176l14 57h180q42 0 109 15z" />
    <glyph glyph-name="v" unicode="v" horiz-adv-x="874" 
d="M104 518h-47q43 98 72.5 146t75.5 94q77 80 162 80q46 0 76 -32t30 -81q0 -21 -6 -45l-141 -463q-17 -59 -17 -90q0 -84 86 -84q48 0 101.5 27.5t95.5 74.5q85 94 146 229.5t61 233.5q0 34 -7.5 44.5t-37.5 19.5q-72 21 -72 88q0 33 20.5 55.5t49.5 22.5q43 0 68.5 -43.5
t25.5 -116.5q0 -149 -67 -312t-173 -272q-51 -52 -115.5 -83t-121.5 -31q-87 0 -138 46.5t-51 125.5q0 49 19 108l120 393q17 59 17 76q0 37 -25 37q-88 0 -207 -248z" />
    <glyph glyph-name="w" unicode="w" horiz-adv-x="1429" 
d="M137 530h-45q43 101 69.5 146.5t69.5 89.5q69 72 170 72q52 0 81.5 -26t29.5 -71q0 -26 -6 -53l-154 -541q-6 -21 -6 -41q0 -61 55 -61q28 0 70.5 25t77.5 63q86 92 169 245t126 298l41 143h139l-68 -244q-33 -119 -57.5 -240t-24.5 -167q0 -125 87 -125q32 0 76.5 24.5
t76.5 59.5q74 77 134 192t85 226q6 24 6 47q0 30 -11.5 46.5t-43.5 29.5q-34 15 -46.5 34t-12.5 54q0 34 22 58t51 24q43 0 69 -44.5t26 -119.5q0 -145 -71.5 -311t-180.5 -273q-110 -110 -228 -110q-79 0 -121 57t-42 164q0 61 18 172l-4 4q-99 -194 -189 -287
q-51 -51 -111.5 -80.5t-115.5 -29.5q-60 0 -98.5 36t-38.5 93q0 28 10 61l156 553q2 6 2 18q0 43 -37 43q-41 0 -94 -65t-111 -189z" />
    <glyph glyph-name="x" unicode="x" 
d="M604 549l109 143q109 146 170 146q37 0 58.5 -21.5t21.5 -58.5q0 -29 -20 -49.5t-48 -20.5q-26 0 -51 25q-13 16 -25 16q-18 0 -49 -35.5t-104 -136.5q-2 -3 -11 -14.5t-16 -20.5l-25 -37l43 -286q12 -77 27 -107.5t41 -30.5q37 0 83.5 64.5t96.5 183.5h43
q-73 -183 -149 -262q-64 -67 -135 -67q-60 0 -89 46.5t-49 176.5q-3 15 -10 58.5t-12 68.5l-137 -180q-129 -170 -238 -170q-40 0 -63 21.5t-23 59.5q0 29 20 50.5t48 21.5q18 0 30 -5.5t31 -23.5q21 -24 41 -24q60 0 250 274l33 45l-39 242q-12 69 -27 96t-43 27
q-41 0 -83.5 -59t-108.5 -209h-48q57 128 92.5 189t73.5 99q57 54 123 54q72 0 107.5 -61t60.5 -228z" />
    <glyph glyph-name="y" unicode="y" 
d="M115 522h-47q40 98 67.5 145.5t71.5 94.5q70 76 151 76q53 0 81.5 -39.5t41.5 -132.5l72 -488h4l199 455q51 113 85 159t66 46q29 0 49.5 -19t20.5 -47q0 -29 -18.5 -48t-45.5 -19q-16 0 -28 4q-10 4 -21 4q-15 0 -26 -14t-31 -60l-256 -573q-108 -247 -247.5 -397
t-258.5 -150q-44 0 -73 23.5t-29 60.5q0 30 20.5 50.5t50.5 20.5q34 0 60 -41q24 -39 51 -39q65 0 184 150q47 58 74 101t68 124l-105 707q-12 86 -47 86q-38 0 -89 -66t-95 -174z" />
    <glyph glyph-name="z" unicode="z" horiz-adv-x="874" 
d="M90 111l629 561l-4 4q-93 -14 -170 -14q-66 0 -109 6.5t-96 25.5q-2 1 -4.5 2t-3.5 1.5t-2 0.5t-13 4l-86 -147l-41 23l160 260q236 -90 375 -90q74 0 74 24q0 6 -4 14q-7 14 -7 19q0 13 12 23t27 10t26 -12t11 -27q0 -21 -16 -50t-39 -49l-588 -530h53q63 0 181 -47
q112 -45 166 -45q39 0 65.5 17.5t26.5 43.5q0 14 -6 18t-31 5q-34 2 -54 16.5t-20 38.5q0 25 22 43.5t52 18.5q38 0 62 -30t24 -77q0 -80 -69 -136t-167 -56q-95 0 -243 63q-89 39 -127 39q-29 0 -29 -23q0 -14 2 -24q4 -16 4 -17q0 -38 -45 -38q-43 0 -43 45q0 19 13.5 45
t31.5 41z" />
    <glyph glyph-name="braceleft" unicode="{" horiz-adv-x="983" 
d="M842 -408v-34q-170 23 -272.5 134t-102.5 271q0 58 20 139q25 113 25 154q0 82 -64 141.5t-165 73.5v39q101 14 165 74t64 143q0 43 -25 152q-22 83 -22 155q0 146 106.5 256t270.5 133v-37q-228 -53 -228 -237q0 -47 25 -156q23 -100 23 -153q0 -114 -79 -205.5
t-218 -138.5v-4q137 -50 217 -144.5t80 -206.5q0 -56 -23 -153q-25 -112 -25 -158q0 -89 58.5 -149.5t169.5 -88.5z" />
    <glyph glyph-name="bar" unicode="|" horiz-adv-x="1079" 
d="M473 1425h133v-1701h-133v1701z" />
    <glyph glyph-name="braceright" unicode="}" horiz-adv-x="983" 
d="M178 1386v37q169 -23 272 -134t103 -271q0 -54 -21 -139q-24 -108 -24 -154q0 -82 63 -142t164 -73v-39q-101 -13 -164 -73.5t-63 -143.5q0 -47 24 -152q21 -93 21 -155q0 -147 -106 -256.5t-269 -132.5v34q225 57 225 240q0 51 -24 156q-21 88 -21 153q0 114 78.5 205.5
t216.5 138.5v4q-136 49 -215.5 143.5t-79.5 207.5q0 62 21 153q24 95 24 156q0 183 -225 237z" />
    <glyph glyph-name="asciitilde" unicode="~" horiz-adv-x="1366" 
d="M1171 815h52q-3 -135 -74.5 -219t-181.5 -84q-61 0 -122 19t-255 100q-88 36 -134 49.5t-83 13.5q-143 0 -178 -180h-52q5 85 22.5 136.5t57.5 92.5q32 34 77 54t89 20q47 0 96 -12t136 -45q29 -12 80 -33.5t73 -30.5q148 -63 213 -63q78 0 126 46.5t58 135.5z" />
    <glyph glyph-name="exclamdown" unicode="&#xa1;" horiz-adv-x="661" 
d="M385 514h41q-62 -268 -70 -309q-31 -171 -37 -256q-19 -226 -31.5 -290.5t-47.5 -100.5q-30 -35 -72 -35q-41 0 -68.5 29t-27.5 73t13.5 85.5t53.5 119.5q118 238 183 457q19 59 63 227zM492 965q46 0 78 -32.5t32 -78.5t-32.5 -79.5t-77.5 -33.5q-46 0 -78.5 33.5
t-32.5 79.5t32.5 78.5t78.5 32.5z" />
    <glyph glyph-name="cent" unicode="&#xa2;" horiz-adv-x="768" 
d="M274 53l250 735q-58 -7 -107.5 -55t-84.5 -131q-43 -103 -78 -233.5t-35 -194.5q0 -40 12 -66.5t43 -54.5zM694 1286l45 2l-149 -448q83 -10 129.5 -55t46.5 -113q0 -40 -24.5 -67t-59.5 -27q-31 0 -52.5 22.5t-21.5 56.5q0 46 54 72q18 9 18 16q0 17 -31.5 32t-75.5 18
l-258 -760q40 -6 62 -6q75 0 140.5 47t135.5 153h47q-60 -118 -148.5 -182.5t-189.5 -64.5q-16 0 -63 6l-119 -350h-47l123 364q-178 93 -178 287q0 113 79.5 253.5t186.5 215.5q96 66 199 82z" />
    <glyph glyph-name="sterling" unicode="&#xa3;" horiz-adv-x="1193" 
d="M395 170q-78 49 -129 49q-65 0 -110 -33.5t-45 -81.5q0 -34 25 -55.5t65 -21.5q55 0 105 37.5t89 105.5zM614 784h281l-10 -53h-275l-8 -106h289l-8 -54h-287q-23 -124 -45.5 -194.5t-63.5 -147.5q27 -11 95 -39q66 -29 101.5 -39t76.5 -10q80 0 147.5 52t108.5 145h55
q-25 -100 -55.5 -162t-77.5 -108q-43 -41 -101.5 -67t-109.5 -26q-112 0 -285 162q-63 -88 -119.5 -125t-127.5 -37q-60 0 -100 38t-40 96q0 73 63.5 123.5t155.5 50.5q72 0 154 -31q21 82 21 233q0 25 -3 86h-266l8 54h256l5 106h-261l9 53h254q13 107 28 166t45 123
q49 97 117 162q106 98 246 98q110 0 184 -64t74 -161q0 -69 -37 -114.5t-94 -45.5q-46 0 -73.5 26t-27.5 70q0 32 25 56t59 24q4 0 16.5 -2.5t18.5 -3.5q18 -6 31 -6q14 0 14 25q0 57 -55 100t-127 43q-79 0 -138.5 -39.5t-90.5 -110.5q-25 -56 -35.5 -126.5t-16.5 -219.5z
" />
    <glyph glyph-name="currency" unicode="&#xa4;" horiz-adv-x="1366" 
d="M195 1061l88 90l129 -129q75 57 128.5 74.5t153.5 17.5q80 0 133 -18.5t127 -73.5l127 129l88 -90l-127 -127q57 -82 75 -135.5t18 -143.5q0 -87 -18.5 -138t-74.5 -124l127 -129l-88 -88l-127 127q-80 -56 -133 -74t-139 -18q-93 0 -145 17.5t-125 74.5l-127 -127
l-90 88l129 129q-56 86 -73.5 140t-17.5 137q0 84 18 136t73 128zM358 662q0 -134 95.5 -230t228.5 -96q135 0 230.5 96t95.5 230q0 135 -94 230t-228 95q-135 0 -231.5 -95t-96.5 -230z" />
    <glyph glyph-name="yen" unicode="&#xa5;" horiz-adv-x="1536" 
d="M842 1065h415l209 281h-215l13 51h462l-14 -51h-180l-209 -281h315l-12 -51h-342l-264 -359h514l-14 -55h-539l-141 -545h223l-12 -53h-621l10 53h215l142 545h-619l15 55h587l-106 359h-387l14 51h358l-86 281h-200l12 51h582l-15 -51h-194zM1219 1014h-361l105 -348z
" />
    <glyph glyph-name="brokenbar" unicode="&#xa6;" horiz-adv-x="1079" 
d="M473 446h133v-722h-133v722zM473 1425h133v-725h-133v725z" />
    <glyph glyph-name="section" unicode="&#xa7;" horiz-adv-x="1087" 
d="M659 125q189 132 189 281q0 74 -44.5 132t-156.5 130q-90 56 -126 86.5t-77 87.5q-159 -140 -159 -277q0 -106 84 -190q48 -48 125 -99q62 -39 89.5 -64.5t75.5 -86.5zM1008 1153q10 13 10 29q0 47 -51 98q-63 63 -158 63q-126 0 -213.5 -80.5t-87.5 -197.5
q0 -64 38 -113.5t134 -109.5q122 -76 172 -142q68 -90 68 -215q0 -128 -95 -256q-31 -40 -61 -68.5t-88 -72.5q26 -71 26 -137q0 -154 -118.5 -269.5t-276.5 -115.5q-111 0 -187.5 68t-76.5 167q0 75 38.5 130t92.5 55q35 0 55.5 -21.5t20.5 -58.5q0 -47 -31.5 -79.5
t-85.5 -43.5q-23 -5 -32 -11t-9 -18q0 -16 12.5 -39t32.5 -41q71 -71 174 -71q122 0 212.5 84t90.5 196q0 69 -43 124.5t-153 127.5q-67 44 -107 80q-57 60 -80.5 119.5t-23.5 142.5q0 130 86 254q28 41 55 70t82 78q-18 68 -18 110q0 152 118 272.5t267 120.5
q118 0 192 -69t74 -178q0 -74 -40 -127.5t-97 -53.5q-34 0 -57 23t-23 57q0 86 110 101q34 4 52 18z" />
    <glyph glyph-name="dieresis" unicode="&#xa8;" horiz-adv-x="681" 
d="M301 1208q45 0 77 -30t32 -72q0 -46 -31.5 -76.5t-77.5 -30.5q-41 0 -71.5 31.5t-30.5 75.5q0 41 31 71.5t71 30.5zM696 1208q43 0 74 -30.5t31 -71.5q0 -44 -30 -75.5t-73 -31.5q-45 0 -75.5 31.5t-30.5 77.5q0 40 31.5 70t72.5 30z" />
    <glyph glyph-name="copyright" unicode="&#xa9;" horiz-adv-x="1556" 
d="M1128 1135l21 -281h-39q-71 236 -301 236q-154 0 -239 -105.5t-85 -296.5q0 -189 88.5 -294t245.5 -105q193 0 309 162l37 -21q-139 -203 -387 -203q-196 0 -327.5 129.5t-131.5 323.5q0 192 144 323.5t356 131.5q48 0 79.5 -6t105.5 -31q24 -8 36 -8q18 0 29 9.5
t21 35.5h38zM778 1386q144 0 275.5 -56t226.5 -151t151 -226t56 -275q0 -115 -36 -223.5t-101.5 -195.5t-152.5 -152.5t-195.5 -101.5t-223.5 -36q-144 0 -275 56t-226 151t-151 226.5t-56 275.5t56 275t151 226t226 151t275 56zM778 1325q-176 0 -325 -86.5t-235.5 -235.5
t-86.5 -325t86.5 -325t235.5 -235.5t325 -86.5t325 86.5t235.5 235.5t86.5 325t-86.5 325t-235.5 235.5t-325 86.5z" />
    <glyph glyph-name="ordfeminine" unicode="&#xaa;" horiz-adv-x="704" 
d="M334 893q58 0 106.5 43t79.5 121q23 62 41.5 133t18.5 100q0 45 -28 75t-71 30q-63 0 -112 -52q-81 -87 -119 -276q-10 -48 -10 -74q0 -44 26.5 -72t67.5 -28zM627 1425h90l-129 -454q-4 -20 -4 -29q0 -41 37 -41q31 0 67.5 47.5t65.5 124.5h26q-65 -209 -190 -209
q-41 0 -64.5 22t-23.5 62v10h-4q-38 -51 -79 -73.5t-95 -22.5q-75 0 -126 55t-51 138q0 67 34 142t91 134q92 92 205 92q48 0 75 -18.5t50 -67.5z" />
    <glyph glyph-name="guillemotleft" unicode="&#xab;" horiz-adv-x="768" 
d="M676 831h45l-248 -358l96 -358h-41l-182 360zM467 889h37l-293 -416l147 -420h-41l-241 420z" />
    <glyph glyph-name="logicalnot" unicode="&#xac;" horiz-adv-x="1366" 
d="M139 975h1088v-619h-131v488h-957v131z" />
    <glyph glyph-name="registered" unicode="&#xae;" horiz-adv-x="1556" 
d="M385 1114h387q132 0 214.5 -61t82.5 -158q0 -88 -54 -143t-169 -84l211 -297q35 -51 59.5 -68.5t61.5 -19.5v-35h-185l-295 405h-75v-235v-74q0 -33 27 -47t91 -14v-35h-366v35q69 0 86.5 22.5t17.5 114.5v522q0 49 -2.5 73.5t-13.5 40t-27.5 19t-50.5 4.5v35zM623 696
h30q125 0 189.5 48.5t64.5 142.5q0 75 -57.5 128.5t-140.5 53.5q-41 0 -86 -14v-359zM778 1386q144 0 275.5 -56t226.5 -151t151 -226t56 -275q0 -115 -36 -223.5t-101.5 -195.5t-152.5 -152.5t-195.5 -101.5t-223.5 -36q-144 0 -275 56t-226 151t-151 226.5t-56 275.5
t56 275t151 226t226 151t275 56zM778 1325q-176 0 -325 -86.5t-235.5 -235.5t-86.5 -325t86.5 -325t235.5 -235.5t325 -86.5t325 86.5t235.5 235.5t86.5 325t-86.5 325t-235.5 235.5t-325 86.5z" />
    <glyph glyph-name="macron" unicode="&#xaf;" horiz-adv-x="681" 
d="M891 1180l-41 -162h-719l35 162h725z" />
    <glyph glyph-name="degree" unicode="&#xb0;" horiz-adv-x="819" 
d="M522 1386q129 0 219 -88.5t90 -214.5q0 -128 -88.5 -218.5t-214.5 -90.5q-129 0 -220 91t-91 220q0 124 89.5 212.5t215.5 88.5zM522 1305q-92 0 -156.5 -64t-64.5 -154q0 -95 66.5 -162t160.5 -67q91 0 155.5 65.5t64.5 159.5q0 92 -66.5 157t-159.5 65z" />
    <glyph glyph-name="plusminus" unicode="&#xb1;" horiz-adv-x="1366" 
d="M139 895h477v479h132v-479h479v-131h-479v-477h-132v477h-477v131zM139 86h1088v-131h-1088v131z" />
    <glyph glyph-name="twosuperior" unicode="&#xb2;" horiz-adv-x="661" 
d="M182 799h260q38 0 52.5 16t27.5 76h25l-41 -205h-426v59q35 34 49.5 47.5t41.5 36t69 54.5q78 58 131 108q49 52 69.5 104t20.5 122q0 57 -24.5 88.5t-67.5 31.5q-61 0 -113 -45q-9 -9 -12 -20q-4 -8 -4 -17q0 -15 8.5 -20.5t32.5 -7.5q35 0 50 -12.5t15 -43.5
q0 -28 -20.5 -46.5t-51.5 -18.5q-35 0 -61.5 30t-26.5 70q0 74 57.5 119t151.5 45q95 0 154 -42t59 -111q0 -49 -31 -93t-108 -104l-287 -217v-4z" />
    <glyph glyph-name="threesuperior" unicode="&#xb3;" horiz-adv-x="661" 
d="M399 1044v3v-5q89 -15 130.5 -51t41.5 -98q0 -88 -84 -154.5t-194 -66.5q-84 0 -136.5 34t-52.5 89q0 35 25.5 60.5t60.5 25.5q29 0 47.5 -17t18.5 -45q0 -35 -39 -51q-27 -11 -27 -27q0 -17 20 -30t48 -13q64 0 111 67t47 159q0 106 -74 106q-5 0 -33 -4q-27 -6 -35 -6
q-20 0 -32.5 6.5t-12.5 17.5q0 27 52 27q10 0 20 -2q24 -4 29 -4q54 0 90.5 54t36.5 134q0 37 -23 60.5t-61 23.5q-26 0 -44 -9t-18 -21q0 -9 17 -17q30 -13 30 -45q0 -27 -21 -47t-50 -20q-31 0 -52.5 22t-21.5 51q0 54 55 86.5t146 32.5q80 0 132 -40t52 -103
t-48.5 -107.5t-150.5 -75.5z" />
    <glyph glyph-name="acute" unicode="&#xb4;" horiz-adv-x="681" 
d="M276 1014l160 127q109 87 163 120t85 33q30 0 52 -24.5t22 -57.5q0 -44 -48 -75t-192 -78l-133 -43l-90 -33z" />
    <glyph glyph-name="mu" unicode="&#xb5;" horiz-adv-x="1024" 
d="M287 881h153l-147 -510l-14 -49q-6 -21 -12 -41.5t-8.5 -28.5t-2.5 -10q-6 -24 -6 -54q0 -57 26.5 -87.5t75.5 -30.5q48 0 100.5 32.5t96.5 90.5q61 77 82 122.5t61 186.5l111 379h151l-166 -578l-22 -65q-12 -38 -12 -78q0 -86 57 -86q39 0 67.5 29.5t69.5 111.5h37
q-26 -80 -50.5 -118.5t-70.5 -73.5q-65 -48 -133 -48q-58 0 -94.5 43t-36.5 109q0 31 6 72l-4 4q-38 -61 -66.5 -92.5t-76.5 -65.5q-55 -39 -94.5 -54.5t-85.5 -15.5q-57 0 -93 25t-65 84q-30 -103 -39.5 -155.5t-22.5 -200.5q-8 -86 -34.5 -127t-75.5 -41q-32 0 -52 22.5
t-20 57.5q0 26 12 55.5t64 128.5q64 121 115 305l26 86z" />
    <glyph glyph-name="paragraph" unicode="&#xb6;" horiz-adv-x="927" 
d="M803 1300v-1742h-72v1742h-186v-1742h-74v1044h-29q-165 7 -260 52t-145 137q-45 83 -45 186q0 179 118.5 279t331.5 100h494v-56h-133z" />
    <glyph glyph-name="periodcentered" unicode="&#xb7;" horiz-adv-x="555" 
d="M295 686q44 0 76 -32t32 -76q0 -46 -32 -78.5t-76 -32.5q-46 0 -78.5 32.5t-32.5 78.5q0 44 32.5 76t78.5 32z" />
    <glyph glyph-name="cedilla" unicode="&#xb8;" horiz-adv-x="681" 
d="M344 -2l-33 -39q70 -41 70 -113q0 -78 -81.5 -128t-209.5 -50q-3 0 -53 4l16 80q103 0 141.5 15t38.5 55q0 22 -11 36t-40 31l101 109h61z" />
    <glyph glyph-name="onesuperior" unicode="&#xb9;" horiz-adv-x="661" 
d="M494 1366l-138 -645h119l-6 -33h-373l6 35h111l129 602h-98l8 33h59q57 0 183 8z" />
    <glyph glyph-name="ordmasculine" unicode="&#xba;" horiz-adv-x="641" 
d="M365 866q-88 0 -144.5 61.5t-56.5 155.5q0 131 102 236.5t228 105.5q85 0 139.5 -60.5t54.5 -152.5q0 -133 -99 -239.5t-224 -106.5zM367 895q72 3 110 47q70 70 107 250q12 58 12 96q0 51 -28 80t-79 29q-118 0 -174 -146q-25 -64 -42 -134t-17 -111q0 -53 27.5 -82
t78.5 -29h5z" />
    <glyph glyph-name="guillemotright" unicode="&#xbb;" horiz-adv-x="768" 
d="M229 831h39l187 -362l-330 -354h-45l248 358zM442 891h39l242 -420l-389 -416h-39l295 416z" />
    <glyph glyph-name="onequarter" unicode="&#xbc;" horiz-adv-x="1961" 
d="M1448 578l-332 -385h244l92 380zM1505 692h92l-118 -497h84l18 73h45l-51 -202h-41l18 84h-86l-34 -146h90l-11 -43h-299l11 41h90l35 145h-263v60zM737 1421l-162 -688h134l-11 -41h-366l8 41h117l135 574q4 16 4 24q0 33 -31 33h-90l14 45h23q55 0 127 6l41 2
q4 0 11.5 0.5t21 1.5t24.5 2zM1548 1425h99l-1227 -1482h-101z" />
    <glyph glyph-name="onehalf" unicode="&#xbd;" horiz-adv-x="1961" 
d="M733 1421l-160 -690h136l-13 -41h-366l8 41h117l137 582q0 3 1 9t1 9q0 33 -43 33h-76l12 43h43q70 0 158 8q10 2 23 2zM1157 55h293q28 0 44 20t26 70h34l-47 -190h-446v68l41 32l41 29q181 142 205 162q36 32 79 82q89 106 89 190q0 63 -34.5 100t-92.5 37
q-66 0 -113 -47q-25 -22 -25 -45q0 -10 6.5 -14.5t24.5 -7.5q29 -4 40 -16.5t11 -39.5q0 -26 -17.5 -44.5t-43.5 -18.5q-32 0 -54 24.5t-22 61.5q0 76 63 129t154 53q103 0 166 -46t63 -122q0 -118 -266 -311l-219 -152v-4zM1548 1421h97l-1229 -1476h-99z" />
    <glyph glyph-name="threequarters" unicode="&#xbe;" horiz-adv-x="1961" 
d="M1509 694h90l-120 -499h86l18 71h41l-49 -200h-41l18 84h-86l-34 -146h90l-11 -43h-299l11 41h92l35 148h-265v57zM635 1081v2v-4q92 -23 130 -61t38 -107q0 -100 -89 -168.5t-218 -68.5q-91 0 -147 36t-56 95q0 38 21.5 63t52.5 25q30 0 49.5 -17.5t19.5 -44.5
q0 -43 -53 -57q-25 -8 -25 -18q0 -16 33 -29q47 -18 101 -18q75 0 124.5 66.5t49.5 166.5q0 117 -117 117q-15 0 -35 -2q-14 -2 -37 -2q-19 0 -25 3.5t-6 14.5q0 27 35 27q11 0 19 -2h26q77 0 129 53.5t52 132.5q0 56 -22 80.5t-71 24.5q-40 0 -63 -11.5t-23 -31.5
q0 -10 7 -19q8 -12 8 -39q0 -25 -15 -39t-41 -14q-28 0 -43.5 19t-15.5 53q0 54 53.5 85t145.5 31q97 0 152 -40t55 -109q0 -123 -199 -193zM1448 578l-330 -385h242l92 380zM1548 1425h99l-1229 -1480h-96z" />
    <glyph glyph-name="questiondown" unicode="&#xbf;" horiz-adv-x="874" 
d="M549 547h43q-6 -96 -14.5 -144t-26.5 -88q-32 -69 -92.5 -119.5t-179.5 -107.5q-82 -40 -108.5 -55.5t-66.5 -50.5q-41 -44 -58 -83t-17 -89q0 -101 82 -171.5t202 -70.5q51 0 101.5 17.5t81.5 45.5q22 19 22 45q0 15 -29 35q-28 17 -39.5 34.5t-11.5 43.5q0 38 24.5 63
t61.5 25q39 0 65.5 -33.5t26.5 -81.5q0 -95 -95 -167t-222 -72q-145 0 -247.5 94.5t-102.5 226.5q0 69 34 145.5t91 133.5q77 77 252 153q102 44 142.5 73.5t57.5 72.5q20 51 23 125zM631 965q46 0 79 -32.5t33 -78.5t-33 -78.5t-79 -32.5t-78.5 32.5t-32.5 78.5t32.5 78.5
t78.5 32.5z" />
    <glyph glyph-name="Agrave" unicode="&#xc0;" horiz-adv-x="1536" 
d="M1139 1116l-451 -567h379l76 563zM1317 1419h45l-180 -1364h204l-12 -55h-557l14 55h173l57 439h-416l-350 -439h211l-12 -55h-441l15 55h159zM1522 1513l-17 -30l-90 33l-133 43q-144 47 -192 78t-48 75q0 34 21.5 58t52.5 24t84.5 -33t163.5 -121z" />
    <glyph glyph-name="Aacute" unicode="&#xc1;" horiz-adv-x="1536" 
d="M1139 1116l-451 -567h379l76 563zM1317 1419h45l-180 -1364h204l-12 -55h-557l14 55h173l57 439h-416l-350 -439h211l-12 -55h-441l15 55h159zM1053 1513l159 127q110 88 163.5 121t84.5 33q30 0 52 -24.5t22 -57.5q0 -44 -48 -75t-192 -78l-133 -43l-90 -33z" />
    <glyph glyph-name="Acircumflex" unicode="&#xc2;" horiz-adv-x="1536" 
d="M1139 1116l-451 -567h379l76 563zM1317 1419h45l-180 -1364h204l-12 -55h-557l14 55h173l57 439h-416l-350 -439h211l-12 -55h-441l15 55h159zM958 1483l304 321h92l207 -321h-43l-224 172l-282 -172h-54z" />
    <glyph glyph-name="Atilde" unicode="&#xc3;" horiz-adv-x="1536" 
d="M1139 1116l-451 -567h379l76 563zM1317 1419h45l-180 -1364h204l-12 -55h-557l14 55h173l57 439h-416l-350 -439h211l-12 -55h-441l15 55h159zM1591 1745h37q-3 -107 -54.5 -166t-141.5 -59q-38 0 -85 12.5t-151 50.5q-69 25 -106 25q-39 0 -67 -25t-28 -61h-34
q2 109 51.5 168t140.5 59q58 0 162 -41q90 -32 121.5 -40.5t58.5 -8.5q76 0 96 86z" />
    <glyph glyph-name="Adieresis" unicode="&#xc4;" horiz-adv-x="1536" 
d="M1139 1116l-451 -567h379l76 563zM1317 1419h45l-180 -1364h204l-12 -55h-557l14 55h173l57 439h-416l-350 -439h211l-12 -55h-441l15 55h159zM1077 1708q45 0 77 -30t32 -72q0 -46 -31.5 -76.5t-77.5 -30.5q-41 0 -71.5 31.5t-30.5 75.5q0 41 31 71.5t71 30.5z
M1473 1708q43 0 73.5 -30.5t30.5 -71.5q0 -44 -29.5 -75.5t-72.5 -31.5q-46 0 -76.5 31.5t-30.5 77.5q0 40 32 70t73 30z" />
    <glyph glyph-name="Aring" unicode="&#xc5;" horiz-adv-x="1536" 
d="M1139 1116l-451 -567h379l76 563zM1317 1419h45l-180 -1364h204l-12 -55h-557l14 55h173l57 439h-416l-350 -439h211l-12 -55h-441l15 55h159zM1364 1833q78 0 138.5 -54t60.5 -124q0 -89 -56.5 -144t-148.5 -55q-87 0 -146 54.5t-59 134.5q0 82 59.5 135t151.5 53z
M1360 1772q-57 0 -99 -37t-42 -88q0 -54 39.5 -90.5t99.5 -36.5q61 0 102 36t41 89q0 54 -40.5 90.5t-100.5 36.5z" />
    <glyph glyph-name="AE" unicode="&#xc6;" horiz-adv-x="1961" 
d="M1208 1298l-563 -753h373l194 749zM999 1393h1047l-80 -375h-51q16 96 16 139q0 94 -36.5 137t-114.5 43h-369l-151 -587h137q176 0 225 213h55l-139 -539h-55q28 93 28 147q0 123 -129 123h-137l-168 -639h371q126 0 221 92q48 48 78.5 96.5t81.5 155.5h51l-139 -399
h-1032l12 55h170l113 434h-398l-332 -434h185l-13 -55h-419l14 55h166l969 1282h-187z" />
    <glyph glyph-name="Ccedilla" unicode="&#xc7;" horiz-adv-x="1323" 
d="M1120 4h-45q-24 38 -63 74q-103 -64 -168.5 -86.5t-153.5 -22.5q-128 0 -232 69t-163 190t-59 270q0 142 60 300t164.5 296t231.5 225q153 104 305 104q91 0 151.5 -29.5t123.5 -105.5q47 47 78 94h47l-99 -376h-53q4 74 4 102q0 126 -64.5 194t-183.5 68
q-145 0 -241 -104q-206 -218 -297 -668q-31 -155 -31 -270q0 -141 69.5 -223t188.5 -82q153 0 293 116q51 42 87 87t93 136h49zM666 -2l-33 -39q69 -41 69 -113q0 -78 -81.5 -128t-208.5 -50q-4 0 -54 4l17 80q103 0 141.5 15t38.5 55q0 22 -11 36t-40 31l100 109h62z" />
    <glyph glyph-name="Egrave" unicode="&#xc8;" horiz-adv-x="1323" 
d="M395 1393h1016l-84 -371h-51q16 96 16 143q0 92 -38 132t-126 40h-360l-152 -583h154q167 0 215 213h55l-139 -543h-55q26 97 26 147q0 127 -145 127h-125l-166 -643h359q144 0 247 103q45 46 74 95t70 146h53l-139 -399h-1045l13 55h184l332 1282h-203zM1221 1513
l-17 -30l-90 33l-133 43q-144 47 -192 78t-48 75q0 34 21.5 58t52.5 24t84.5 -33t163.5 -121z" />
    <glyph glyph-name="Eacute" unicode="&#xc9;" horiz-adv-x="1323" 
d="M395 1393h1016l-84 -371h-51q16 96 16 143q0 92 -38 132t-126 40h-360l-152 -583h154q167 0 215 213h55l-139 -543h-55q26 97 26 147q0 127 -145 127h-125l-166 -643h359q144 0 247 103q45 46 74 95t70 146h53l-139 -399h-1045l13 55h184l332 1282h-203zM752 1513
l159 127q110 88 163.5 121t84.5 33q30 0 52 -24.5t22 -57.5q0 -44 -48 -75t-192 -78l-133 -43l-90 -33z" />
    <glyph glyph-name="Ecircumflex" unicode="&#xca;" horiz-adv-x="1323" 
d="M395 1393h1016l-84 -371h-51q16 96 16 143q0 92 -38 132t-126 40h-360l-152 -583h154q167 0 215 213h55l-139 -543h-55q26 97 26 147q0 127 -145 127h-125l-166 -643h359q144 0 247 103q45 46 74 95t70 146h53l-139 -399h-1045l13 55h184l332 1282h-203zM657 1483
l304 321h92l207 -321h-43l-224 172l-282 -172h-54z" />
    <glyph glyph-name="Edieresis" unicode="&#xcb;" horiz-adv-x="1323" 
d="M395 1393h1016l-84 -371h-51q16 96 16 143q0 92 -38 132t-126 40h-360l-152 -583h154q167 0 215 213h55l-139 -543h-55q26 97 26 147q0 127 -145 127h-125l-166 -643h359q144 0 247 103q45 46 74 95t70 146h53l-139 -399h-1045l13 55h184l332 1282h-203zM776 1708
q45 0 77 -30t32 -72q0 -46 -31.5 -76.5t-77.5 -30.5q-41 0 -71.5 31.5t-30.5 75.5q0 41 31 71.5t71 30.5zM1171 1708q43 0 74 -30.5t31 -71.5q0 -44 -29.5 -75.5t-72.5 -31.5q-46 0 -76.5 31.5t-30.5 77.5q0 40 31.5 70t72.5 30z" />
    <glyph glyph-name="Igrave" unicode="&#xcc;" horiz-adv-x="768" 
d="M358 1393h586l-12 -56h-199l-330 -1282h207l-10 -55h-551l10 55h162l328 1282h-207zM942 1513l-16 -30l-90 33l-134 43q-144 47 -191.5 77.5t-47.5 75.5q0 34 21.5 58t52.5 24t83.5 -33t163.5 -121z" />
    <glyph glyph-name="Iacute" unicode="&#xcd;" horiz-adv-x="768" 
d="M358 1393h586l-12 -56h-199l-330 -1282h207l-10 -55h-551l10 55h162l328 1282h-207zM473 1513l160 127q110 88 163.5 121t84.5 33q29 0 51 -24t22 -58q0 -45 -47.5 -75.5t-191.5 -77.5l-133 -43l-90 -33z" />
    <glyph glyph-name="Icircumflex" unicode="&#xce;" horiz-adv-x="768" 
d="M358 1393h586l-12 -56h-199l-330 -1282h207l-10 -55h-551l10 55h162l328 1282h-207zM379 1483l303 321h92l207 -321h-43l-223 172l-283 -172h-53z" />
    <glyph glyph-name="Idieresis" unicode="&#xcf;" horiz-adv-x="768" 
d="M358 1393h586l-12 -56h-199l-330 -1282h207l-10 -55h-551l10 55h162l328 1282h-207zM498 1708q44 0 76 -29.5t32 -72.5q0 -46 -31 -76.5t-77 -30.5q-42 0 -72.5 31.5t-30.5 75.5q0 41 31.5 71.5t71.5 30.5zM893 1708q43 0 73.5 -30.5t30.5 -71.5q0 -44 -29.5 -75.5
t-72.5 -31.5q-46 0 -76.5 31.5t-30.5 77.5q0 40 32 70t73 30z" />
    <glyph glyph-name="Eth" unicode="&#xd0;" horiz-adv-x="1429" 
d="M731 1348l-160 -625h355l-17 -55h-352l-158 -613h263q195 0 305 119q160 177 243 580q29 148 29 235q0 359 -360 359h-148zM360 1399h517q243 0 393.5 -151t150.5 -394q0 -236 -99 -431.5t-271.5 -308t-380.5 -112.5h-621l14 53h152l158 613h-238l15 55h235l160 625h-197
z" />
    <glyph glyph-name="Ntilde" unicode="&#xd1;" horiz-adv-x="1536" 
d="M389 1393h383l402 -1082h4l262 1026h-207l12 56h422l-12 -56h-162l-350 -1357h-27l-493 1327h-5l-319 -1252h219l-14 -55h-459l16 55h181l331 1282h-198zM1397 1745h37q-3 -107 -55 -166t-142 -59q-38 0 -85 12.5t-151 50.5q-69 25 -106 25q-39 0 -66.5 -25t-27.5 -61
h-35q2 109 51.5 168t140.5 59q58 0 162 -41q90 -32 121.5 -40.5t58.5 -8.5q77 0 97 86z" />
    <glyph glyph-name="Ograve" unicode="&#xd2;" horiz-adv-x="1429" 
d="M932 1370q-82 0 -153.5 -27.5t-116.5 -78.5q-85 -94 -156.5 -272.5t-120.5 -422.5q-31 -152 -31 -243q0 -303 289 -303q281 0 412 350q70 188 117 389t47 315q0 138 -76 215.5t-211 77.5zM936 1425q212 -6 339.5 -149t127.5 -375q0 -181 -83.5 -377t-223.5 -342
q-207 -216 -455 -213q-214 0 -345.5 142t-131.5 374t127.5 473t316.5 367q152 100 318 100h10zM1274 1513l-17 -30l-90 33l-133 43q-144 47 -191.5 77.5t-47.5 75.5q0 34 21 58t52 24t84.5 -33t163.5 -121z" />
    <glyph glyph-name="Oacute" unicode="&#xd3;" horiz-adv-x="1429" 
d="M932 1370q-82 0 -153.5 -27.5t-116.5 -78.5q-85 -94 -156.5 -272.5t-120.5 -422.5q-31 -152 -31 -243q0 -303 289 -303q281 0 412 350q70 188 117 389t47 315q0 138 -76 215.5t-211 77.5zM936 1425q212 -6 339.5 -149t127.5 -375q0 -181 -83.5 -377t-223.5 -342
q-207 -216 -455 -213q-214 0 -345.5 142t-131.5 374t127.5 473t316.5 367q152 100 318 100h10zM805 1513l160 127q111 88 163.5 121t83.5 33q30 0 52 -24.5t22 -57.5q0 -45 -47.5 -75.5t-191.5 -77.5l-134 -43l-90 -33z" />
    <glyph glyph-name="Ocircumflex" unicode="&#xd4;" horiz-adv-x="1429" 
d="M932 1370q-82 0 -153.5 -27.5t-116.5 -78.5q-85 -94 -156.5 -272.5t-120.5 -422.5q-31 -152 -31 -243q0 -303 289 -303q281 0 412 350q70 188 117 389t47 315q0 138 -76 215.5t-211 77.5zM936 1425q212 -6 339.5 -149t127.5 -375q0 -181 -83.5 -377t-223.5 -342
q-207 -216 -455 -213q-214 0 -345.5 142t-131.5 374t127.5 473t316.5 367q152 100 318 100h10zM711 1483l303 321h92l207 -321h-43l-223 172l-283 -172h-53z" />
    <glyph glyph-name="Otilde" unicode="&#xd5;" horiz-adv-x="1429" 
d="M932 1370q-82 0 -153.5 -27.5t-116.5 -78.5q-85 -94 -156.5 -272.5t-120.5 -422.5q-31 -152 -31 -243q0 -303 289 -303q281 0 412 350q70 188 117 389t47 315q0 138 -76 215.5t-211 77.5zM936 1425q212 -6 339.5 -149t127.5 -375q0 -181 -83.5 -377t-223.5 -342
q-207 -216 -455 -213q-214 0 -345.5 142t-131.5 374t127.5 473t316.5 367q152 100 318 100h10zM1343 1745h37q-3 -107 -54.5 -166t-141.5 -59q-38 0 -85 12.5t-151 50.5q-69 25 -106 25q-39 0 -66.5 -25t-27.5 -61h-35q2 109 51.5 168t140.5 59q58 0 162 -41
q90 -32 121.5 -40.5t58.5 -8.5q76 0 96 86z" />
    <glyph glyph-name="Odieresis" unicode="&#xd6;" horiz-adv-x="1429" 
d="M932 1370q-82 0 -153.5 -27.5t-116.5 -78.5q-85 -94 -156.5 -272.5t-120.5 -422.5q-31 -152 -31 -243q0 -303 289 -303q281 0 412 350q70 188 117 389t47 315q0 138 -76 215.5t-211 77.5zM936 1425q212 -6 339.5 -149t127.5 -375q0 -181 -83.5 -377t-223.5 -342
q-207 -216 -455 -213q-214 0 -345.5 142t-131.5 374t127.5 473t316.5 367q152 100 318 100h10zM829 1708q45 0 77 -30t32 -72q0 -46 -31.5 -76.5t-77.5 -30.5q-41 0 -71.5 31.5t-30.5 75.5q0 41 31 71.5t71 30.5zM1225 1708q43 0 73.5 -30.5t30.5 -71.5q0 -44 -29.5 -75.5
t-72.5 -31.5q-46 0 -76.5 31.5t-30.5 77.5q0 40 32 70t73 30z" />
    <glyph glyph-name="multiply" unicode="&#xd7;" horiz-adv-x="1368" 
d="M184 1071l92 92l408 -409l410 409l92 -94l-408 -407l404 -406l-92 -92l-406 405l-405 -405l-93 92l406 406z" />
    <glyph glyph-name="Oslash" unicode="&#xd8;" horiz-adv-x="1429" 
d="M367 221l823 1012q-38 71 -100 103t-160 32q-80 0 -155 -31t-122 -84q-133 -150 -247 -585q-50 -195 -50 -301q0 -59 11 -146zM1208 1174l-823 -1014q38 -69 100 -101t156 -32q78 0 151.5 29.5t120.5 80.5q143 155 252 578q52 195 52 311q0 54 -9 148zM1249 1307l94 116
l41 -34l-100 -123q121 -164 121 -351q0 -192 -85 -388t-233 -347q-203 -209 -448 -209q-175 0 -311 119l-95 -115l-43 31l99 121q-63 86 -92 171t-29 185q0 232 125.5 471t314.5 365q152 104 326 104q94 0 167.5 -27t147.5 -89z" />
    <glyph glyph-name="Ugrave" unicode="&#xd9;" horiz-adv-x="1533" 
d="M389 1393h598l-14 -56h-203l-235 -911q-21 -77 -21 -150q0 -120 68.5 -182.5t199.5 -62.5q170 0 272.5 99.5t159.5 320.5l232 886h-205l14 56h457l-14 -56h-199l-235 -911q-62 -236 -181.5 -346.5t-314.5 -110.5t-314.5 95t-119.5 249q0 55 16 117l234 907h-207z
M1325 1513l-16 -30l-90 33l-134 43q-144 47 -191.5 77.5t-47.5 75.5q0 34 21.5 58t52.5 24t83.5 -33t163.5 -121z" />
    <glyph glyph-name="Uacute" unicode="&#xda;" horiz-adv-x="1533" 
d="M389 1393h598l-14 -56h-203l-235 -911q-21 -77 -21 -150q0 -120 68.5 -182.5t199.5 -62.5q170 0 272.5 99.5t159.5 320.5l232 886h-205l14 56h457l-14 -56h-199l-235 -911q-62 -236 -181.5 -346.5t-314.5 -110.5t-314.5 95t-119.5 249q0 55 16 117l234 907h-207z
M856 1513l160 127q110 88 163.5 121t84.5 33q29 0 51 -24t22 -58q0 -45 -47.5 -75.5t-191.5 -77.5l-133 -43l-91 -33z" />
    <glyph glyph-name="Ucircumflex" unicode="&#xdb;" horiz-adv-x="1533" 
d="M389 1393h598l-14 -56h-203l-235 -911q-21 -77 -21 -150q0 -120 68.5 -182.5t199.5 -62.5q170 0 272.5 99.5t159.5 320.5l232 886h-205l14 56h457l-14 -56h-199l-235 -911q-62 -236 -181.5 -346.5t-314.5 -110.5t-314.5 95t-119.5 249q0 55 16 117l234 907h-207z
M762 1483l303 321h92l207 -321h-43l-223 172l-283 -172h-53z" />
    <glyph glyph-name="Udieresis" unicode="&#xdc;" horiz-adv-x="1533" 
d="M389 1393h598l-14 -56h-203l-235 -911q-21 -77 -21 -150q0 -120 68.5 -182.5t199.5 -62.5q170 0 272.5 99.5t159.5 320.5l232 886h-205l14 56h457l-14 -56h-199l-235 -911q-62 -236 -181.5 -346.5t-314.5 -110.5t-314.5 95t-119.5 249q0 55 16 117l234 907h-207z
M881 1708q44 0 76 -29.5t32 -72.5q0 -46 -31 -76.5t-77 -30.5q-42 0 -72.5 31.5t-30.5 75.5q0 41 31.5 71.5t71.5 30.5zM1276 1708q43 0 73.5 -30.5t30.5 -71.5q0 -44 -29.5 -75.5t-72.5 -31.5q-46 0 -76.5 31.5t-30.5 77.5q0 40 32 70t73 30z" />
    <glyph glyph-name="Yacute" unicode="&#xdd;" horiz-adv-x="1536" 
d="M387 1393h580l-15 -56h-194l205 -678l501 678h-213l15 56h463l-17 -56h-180l-551 -743l-137 -539h221l-12 -55h-621l10 55h215l140 543l-224 739h-200zM858 1513l160 127q110 88 163.5 121t84.5 33q29 0 51 -24t22 -58q0 -45 -47.5 -75.5t-191.5 -77.5l-133 -43l-90 -33z
" />
    <glyph glyph-name="Thorn" unicode="&#xde;" horiz-adv-x="1323" 
d="M668 1024l-168 -649h198q91 0 166.5 24t116.5 66q53 56 89 158t36 196q0 104 -58.5 154.5t-179.5 50.5h-200zM926 1399l-11 -51h-165l-68 -273h213q186 0 298 -92t112 -246q0 -183 -151.5 -299t-389.5 -116h-279l-67 -269h211l-13 -53h-561l11 53h165l334 1295h-200
l10 51h551z" />
    <glyph glyph-name="germandbls" unicode="&#xdf;" 
d="M567 823l11 45q70 0 115 15.5t79 50.5q44 46 72 124.5t28 155.5q0 80 -40.5 126t-112.5 46q-45 0 -89 -35.5t-75 -95.5q-37 -75 -68 -192t-98 -438q-59 -279 -180 -744q-34 -98 -59.5 -146.5t-69.5 -99.5q-95 -106 -211 -106q-60 0 -98.5 35.5t-38.5 91.5q0 35 24 61.5
t56 26.5t53.5 -21.5t21.5 -52.5q0 -24 -18 -59q-5 -10 -10 -25v-2q0 -10 20 -10q35 0 72 29.5t65 79.5q42 76 78 239q23 95 68 318q104 517 155 692q4 15 10.5 37t16.5 55t18 59q37 104 65 156.5t69 91.5q99 99 231 99q128 0 209.5 -76.5t81.5 -196.5q0 -139 -117 -233
q-35 -29 -70 -45t-106 -37v-4q50 -14 84 -41q55 -46 86 -115t31 -147q0 -112 -50 -228.5t-135 -204.5q-114 -114 -241 -114q-65 0 -106.5 40t-41.5 103q0 47 26.5 78t67.5 31q32 0 54 -22t22 -54q0 -26 -11 -42.5t-38 -31.5q-27 -16 -27 -29q0 -12 16 -21t38 -9
q57 0 102 51.5t88 165.5q39 103 62.5 206t23.5 171q0 195 -209 198z" />
    <glyph glyph-name="agrave" unicode="&#xe0;" horiz-adv-x="1087" 
d="M598 795q-45 0 -94 -22t-82 -56q-119 -131 -184 -420q-15 -67 -15 -121q0 -67 41.5 -110t106.5 -43q80 0 152 60.5t118 166.5q45 98 92 303q2 9 8 51q4 20 4 29q0 70 -42 116t-105 46zM815 840h137l-194 -699q-6 -18 -6 -41q0 -29 13 -46t36 -17q51 0 109 73t102 193h45
q-36 -98 -61 -145.5t-64 -91.5q-80 -89 -168 -89q-135 0 -141 144q-71 -82 -128 -113t-139 -31q-120 0 -198 83.5t-78 211.5q0 104 53 219.5t141 200.5q69 68 154 108t158 40q76 0 117.5 -31t72.5 -111h4zM948 1014l-16 -31l-90 33l-133 43q-144 47 -192 78t-48 75
q0 34 21.5 58t52.5 24t85 -33t163 -120z" />
    <glyph glyph-name="aacute" unicode="&#xe1;" horiz-adv-x="1087" 
d="M598 795q-45 0 -94 -22t-82 -56q-119 -131 -184 -420q-15 -67 -15 -121q0 -67 41.5 -110t106.5 -43q80 0 152 60.5t118 166.5q45 98 92 303q2 9 8 51q4 20 4 29q0 70 -42 116t-105 46zM815 840h137l-194 -699q-6 -18 -6 -41q0 -29 13 -46t36 -17q51 0 109 73t102 193h45
q-36 -98 -61 -145.5t-64 -91.5q-80 -89 -168 -89q-135 0 -141 144q-71 -82 -128 -113t-139 -31q-120 0 -198 83.5t-78 211.5q0 104 53 219.5t141 200.5q69 68 154 108t158 40q76 0 117.5 -31t72.5 -111h4zM479 1014l160 127q109 87 163 120t85 33q30 0 52 -24.5t22 -57.5
q0 -44 -48 -75t-192 -78l-133 -43l-90 -33z" />
    <glyph glyph-name="acircumflex" unicode="&#xe2;" horiz-adv-x="1087" 
d="M598 795q-45 0 -94 -22t-82 -56q-119 -131 -184 -420q-15 -67 -15 -121q0 -67 41.5 -110t106.5 -43q80 0 152 60.5t118 166.5q45 98 92 303q2 9 8 51q4 20 4 29q0 70 -42 116t-105 46zM815 840h137l-194 -699q-6 -18 -6 -41q0 -29 13 -46t36 -17q51 0 109 73t102 193h45
q-36 -98 -61 -145.5t-64 -91.5q-80 -89 -168 -89q-135 0 -141 144q-71 -82 -128 -113t-139 -31q-120 0 -198 83.5t-78 211.5q0 104 53 219.5t141 200.5q69 68 154 108t158 40q76 0 117.5 -31t72.5 -111h4zM385 983l303 322h92l207 -322h-43l-223 172l-283 -172h-53z" />
    <glyph glyph-name="atilde" unicode="&#xe3;" horiz-adv-x="1087" 
d="M598 795q-45 0 -94 -22t-82 -56q-119 -131 -184 -420q-15 -67 -15 -121q0 -67 41.5 -110t106.5 -43q80 0 152 60.5t118 166.5q45 98 92 303q2 9 8 51q4 20 4 29q0 70 -42 116t-105 46zM815 840h137l-194 -699q-6 -18 -6 -41q0 -29 13 -46t36 -17q51 0 109 73t102 193h45
q-36 -98 -61 -145.5t-64 -91.5q-80 -89 -168 -89q-135 0 -141 144q-71 -82 -128 -113t-139 -31q-120 0 -198 83.5t-78 211.5q0 104 53 219.5t141 200.5q69 68 154 108t158 40q76 0 117.5 -31t72.5 -111h4zM1018 1245h37q-3 -107 -55 -166t-142 -59q-38 0 -84.5 12.5
t-150.5 50.5q-69 25 -107 25q-39 0 -66.5 -25t-27.5 -61h-35q1 109 51.5 168t141.5 59q57 0 161 -41q90 -31 122 -40t59 -9q76 0 96 86z" />
    <glyph glyph-name="adieresis" unicode="&#xe4;" horiz-adv-x="1087" 
d="M598 795q-45 0 -94 -22t-82 -56q-119 -131 -184 -420q-15 -67 -15 -121q0 -67 41.5 -110t106.5 -43q80 0 152 60.5t118 166.5q45 98 92 303q2 9 8 51q4 20 4 29q0 70 -42 116t-105 46zM815 840h137l-194 -699q-6 -18 -6 -41q0 -29 13 -46t36 -17q51 0 109 73t102 193h45
q-36 -98 -61 -145.5t-64 -91.5q-80 -89 -168 -89q-135 0 -141 144q-71 -82 -128 -113t-139 -31q-120 0 -198 83.5t-78 211.5q0 104 53 219.5t141 200.5q69 68 154 108t158 40q76 0 117.5 -31t72.5 -111h4zM504 1208q44 0 76 -29.5t32 -72.5q0 -46 -31 -76.5t-77 -30.5
q-42 0 -72.5 31.5t-30.5 75.5q0 41 31.5 71.5t71.5 30.5zM899 1208q43 0 74 -30.5t31 -71.5q0 -44 -30 -75.5t-73 -31.5q-45 0 -75.5 31.5t-30.5 77.5q0 40 31.5 70t72.5 30z" />
    <glyph glyph-name="aring" unicode="&#xe5;" horiz-adv-x="1087" 
d="M598 795q-45 0 -94 -22t-82 -56q-119 -131 -184 -420q-15 -67 -15 -121q0 -67 41.5 -110t106.5 -43q80 0 152 60.5t118 166.5q45 98 92 303q2 9 8 51q4 20 4 29q0 70 -42 116t-105 46zM815 840h137l-194 -699q-6 -18 -6 -41q0 -29 13 -46t36 -17q51 0 109 73t102 193h45
q-36 -98 -61 -145.5t-64 -91.5q-80 -89 -168 -89q-135 0 -141 144q-71 -82 -128 -113t-139 -31q-120 0 -198 83.5t-78 211.5q0 104 53 219.5t141 200.5q69 68 154 108t158 40q76 0 117.5 -31t72.5 -111h4zM791 1333q78 0 138 -54t60 -124q0 -89 -56.5 -144t-148.5 -55
q-87 0 -145.5 54.5t-58.5 134.5q0 82 59.5 135t151.5 53zM786 1272q-57 0 -99 -37t-42 -88q0 -54 39.5 -90.5t99.5 -36.5q61 0 102.5 36t41.5 89q0 54 -41 90.5t-101 36.5z" />
    <glyph glyph-name="ae" unicode="&#xe6;" horiz-adv-x="1429" 
d="M870 461h93q131 0 220 61t89 152q0 52 -32.5 83t-88.5 31q-98 0 -164 -81q-40 -50 -62.5 -97t-54.5 -149zM387 25q188 0 275 231q39 99 69.5 215.5t30.5 167.5q0 69 -42.5 112.5t-109.5 43.5q-86 0 -158.5 -68t-123.5 -195q-37 -95 -62.5 -196.5t-25.5 -157.5
q0 -70 39.5 -111.5t107.5 -41.5zM1313 248h49q-39 -70 -66 -105t-67 -71q-112 -95 -242 -95q-127 0 -213 86q-27 25 -43.5 51.5t-42.5 80.5q-30 -56 -49.5 -82.5t-50.5 -53.5q-91 -82 -199 -82q-132 0 -212.5 83.5t-80.5 220.5q0 101 51 210.5t136 196.5q155 152 327 152
q133 0 185 -133l53 133h98v-74q123 74 242 74q89 0 149 -47.5t60 -118.5q0 -118 -122 -190t-323 -72h-96q-35 -110 -35 -179q0 -91 54 -149.5t137 -58.5q97 0 188 79q34 29 56.5 58t56.5 86z" />
    <glyph glyph-name="ccedilla" unicode="&#xe7;" horiz-adv-x="768" 
d="M659 225h48q-34 -60 -57 -90t-58 -61q-105 -94 -217 -94q-125 0 -208 89t-83 222q0 115 83 257t193 216q112 74 213 74q85 0 141 -48.5t56 -121.5q0 -36 -22.5 -63t-53.5 -27q-34 0 -56 21.5t-22 55.5q0 50 52 70q20 9 20 16q0 21 -39 37q-39 17 -69 17q-101 0 -160 -68
q-110 -125 -182 -453q-13 -67 -13 -96q0 -72 40.5 -111.5t113.5 -39.5q80 0 143.5 45t136.5 153zM387 -2l-33 -39q70 -41 70 -113q0 -78 -81.5 -128t-209.5 -50q-3 0 -53 4l16 80q103 0 141.5 15t38.5 55q0 22 -11 36t-40 31l101 109h61z" />
    <glyph glyph-name="egrave" unicode="&#xe8;" horiz-adv-x="874" 
d="M322 461h88q135 0 225 60.5t90 152.5q0 54 -32 85.5t-89 31.5q-95 0 -172 -93q-40 -53 -61 -98.5t-49 -138.5zM416 418h-109q-37 -121 -37 -189q0 -90 54 -147t139 -57q94 0 190 81q37 33 59.5 62t55.5 84h49q-41 -72 -68.5 -107.5t-68.5 -72.5q-106 -92 -213 -92
q-155 0 -247.5 93.5t-92.5 248.5q0 92 42 184t120 170q75 75 166.5 118.5t173.5 43.5q97 0 161 -49t64 -123q0 -106 -126 -177t-312 -71zM842 1014l-17 -31l-90 33l-133 43q-144 47 -192 78t-48 75q0 34 21.5 58t52.5 24t85 -33t163 -120z" />
    <glyph glyph-name="eacute" unicode="&#xe9;" horiz-adv-x="874" 
d="M322 461h88q135 0 225 60.5t90 152.5q0 54 -32 85.5t-89 31.5q-95 0 -172 -93q-40 -53 -61 -98.5t-49 -138.5zM416 418h-109q-37 -121 -37 -189q0 -90 54 -147t139 -57q94 0 190 81q37 33 59.5 62t55.5 84h49q-41 -72 -68.5 -107.5t-68.5 -72.5q-106 -92 -213 -92
q-155 0 -247.5 93.5t-92.5 248.5q0 92 42 184t120 170q75 75 166.5 118.5t173.5 43.5q97 0 161 -49t64 -123q0 -106 -126 -177t-312 -71zM373 1014l159 127q109 87 163 120t85 33q30 0 52 -24.5t22 -57.5q0 -44 -48 -75t-192 -78l-133 -43l-90 -33z" />
    <glyph glyph-name="ecircumflex" unicode="&#xea;" horiz-adv-x="874" 
d="M322 461h88q135 0 225 60.5t90 152.5q0 54 -32 85.5t-89 31.5q-95 0 -172 -93q-40 -53 -61 -98.5t-49 -138.5zM416 418h-109q-37 -121 -37 -189q0 -90 54 -147t139 -57q94 0 190 81q37 33 59.5 62t55.5 84h49q-41 -72 -68.5 -107.5t-68.5 -72.5q-106 -92 -213 -92
q-155 0 -247.5 93.5t-92.5 248.5q0 92 42 184t120 170q75 75 166.5 118.5t173.5 43.5q97 0 161 -49t64 -123q0 -106 -126 -177t-312 -71zM279 983l303 322h92l207 -322h-43l-224 172l-282 -172h-53z" />
    <glyph glyph-name="edieresis" unicode="&#xeb;" horiz-adv-x="874" 
d="M322 461h88q135 0 225 60.5t90 152.5q0 54 -32 85.5t-89 31.5q-95 0 -172 -93q-40 -53 -61 -98.5t-49 -138.5zM416 418h-109q-37 -121 -37 -189q0 -90 54 -147t139 -57q94 0 190 81q37 33 59.5 62t55.5 84h49q-41 -72 -68.5 -107.5t-68.5 -72.5q-106 -92 -213 -92
q-155 0 -247.5 93.5t-92.5 248.5q0 92 42 184t120 170q75 75 166.5 118.5t173.5 43.5q97 0 161 -49t64 -123q0 -106 -126 -177t-312 -71zM397 1208q45 0 77 -30t32 -72q0 -46 -31.5 -76.5t-77.5 -30.5q-41 0 -71.5 31.5t-30.5 75.5q0 41 31 71.5t71 30.5zM793 1208
q43 0 73.5 -30.5t30.5 -71.5q0 -44 -29.5 -75.5t-72.5 -31.5q-46 0 -76.5 31.5t-30.5 77.5q0 40 32 70t73 30z" />
    <glyph glyph-name="igrave" unicode="&#xec;" horiz-adv-x="661" 
d="M510 834l-207 -725q-2 -6 -2 -17q0 -20 13.5 -34.5t33.5 -14.5q68 0 135 98q41 58 88 168h41q-29 -86 -52 -129.5t-64 -93.5q-95 -109 -193 -109q-60 0 -95.5 33.5t-35.5 89.5q0 26 10 64l172 598h-190l16 57h80l135 6l47 4l54 5h14zM735 1014l-16 -31l-90 33l-133 43
q-144 47 -192 78t-48 75q0 34 21.5 58t52.5 24t85 -33t163 -120z" />
    <glyph glyph-name="iacute" unicode="&#xed;" horiz-adv-x="661" 
d="M510 834l-207 -725q-2 -6 -2 -17q0 -20 13.5 -34.5t33.5 -14.5q68 0 135 98q41 58 88 168h41q-29 -86 -52 -129.5t-64 -93.5q-95 -109 -193 -109q-60 0 -95.5 33.5t-35.5 89.5q0 26 10 64l172 598h-190l16 57h80l135 6l47 4l54 5h14zM266 1014l160 127q109 87 163 120
t85 33q30 0 52 -24.5t22 -57.5q0 -44 -48 -75t-192 -78l-133 -43l-90 -33z" />
    <glyph glyph-name="icircumflex" unicode="&#xee;" horiz-adv-x="661" 
d="M510 834l-207 -725q-2 -6 -2 -17q0 -20 13.5 -34.5t33.5 -14.5q68 0 135 98q41 58 88 168h41q-29 -86 -52 -129.5t-64 -93.5q-95 -109 -193 -109q-60 0 -95.5 33.5t-35.5 89.5q0 26 10 64l172 598h-190l16 57h80l135 6l47 4l54 5h14zM172 983l303 322h92l207 -322h-43
l-223 172l-283 -172h-53z" />
    <glyph glyph-name="idieresis" unicode="&#xef;" horiz-adv-x="661" 
d="M510 834l-207 -725q-2 -6 -2 -17q0 -20 13.5 -34.5t33.5 -14.5q68 0 135 98q41 58 88 168h41q-29 -86 -52 -129.5t-64 -93.5q-95 -109 -193 -109q-60 0 -95.5 33.5t-35.5 89.5q0 26 10 64l172 598h-190l16 57h80l135 6l47 4l54 5h14zM291 1208q44 0 76 -29.5t32 -72.5
q0 -46 -31 -76.5t-77 -30.5q-42 0 -72.5 31.5t-30.5 75.5q0 41 31.5 71.5t71.5 30.5zM686 1208q43 0 74 -30.5t31 -71.5q0 -44 -30 -75.5t-73 -31.5q-45 0 -75.5 31.5t-30.5 77.5q0 40 31.5 70t72.5 30z" />
    <glyph glyph-name="eth" unicode="&#xf0;" 
d="M252 205q0 -85 42.5 -130.5t121.5 -45.5q49 0 97.5 22.5t84.5 61.5q97 110 150 376q18 85 18 132q0 82 -43.5 130t-116.5 48q-46 0 -95.5 -20t-76.5 -50q-55 -58 -99.5 -166.5t-66.5 -236.5q-16 -84 -16 -121zM467 1391l27 36q55 -34 84.5 -56.5t72.5 -63.5
q59 -56 117 -142l174 47l12 -43l-159 -45q43 -82 62 -128.5t36 -112.5q31 -121 31 -240q0 -186 -66.5 -337t-184 -236.5t-261.5 -85.5q-134 0 -218.5 92t-84.5 241q0 95 47.5 200.5t124.5 180.5q66 66 155 106t172 40q77 0 144 -37q-1 112 -10 162.5t-40 130.5l-256 -74
l-12 43l248 70q-40 78 -88 134.5t-127 117.5z" />
    <glyph glyph-name="ntilde" unicode="&#xf1;" horiz-adv-x="1087" 
d="M485 834l-59 -199l4 -4q42 57 66.5 84t60.5 55q86 68 199 68q78 0 123 -40.5t45 -109.5q0 -44 -15 -90l-145 -457q-10 -33 -10 -51q0 -47 45 -47q52 0 112 70q38 44 59.5 84t47.5 116h45q-27 -87 -51 -133t-64 -92q-92 -108 -200 -108q-59 0 -93 31.5t-34 86.5
q0 31 10 64l145 461q12 37 12 77q0 34 -22 55t-59 21q-80 0 -172 -92q-59 -57 -107.5 -137.5t-67.5 -151.5l-110 -395h-141l217 762h-162l16 57h148q43 0 112 15h45zM1018 1245h37q-3 -107 -55 -166t-142 -59q-38 0 -84.5 12.5t-150.5 50.5q-69 25 -107 25q-39 0 -66.5 -25
t-27.5 -61h-35q1 109 51.5 168t141.5 59q57 0 161 -41q90 -31 122 -40t59 -9q76 0 96 86z" />
    <glyph glyph-name="ograve" unicode="&#xf2;" 
d="M410 25q109 3 174 71q102 108 161 379q19 93 19 148q0 80 -43 125t-119 45q-111 0 -182 -80q-52 -56 -89.5 -150.5t-68.5 -243.5q-18 -83 -18 -126q0 -78 42.5 -123t116.5 -45h7zM608 838q128 0 213.5 -93.5t85.5 -234.5q0 -100 -42.5 -197.5t-110.5 -170t-159.5 -117.5
t-184.5 -45q-137 0 -222.5 93t-85.5 242q0 94 44 193t122 178q152 152 340 152zM895 1014l-16 -31l-91 33l-133 43q-144 47 -191.5 77.5t-47.5 75.5q0 34 21 58t52 24t85 -33t163 -120z" />
    <glyph glyph-name="oacute" unicode="&#xf3;" 
d="M410 25q109 3 174 71q102 108 161 379q19 93 19 148q0 80 -43 125t-119 45q-111 0 -182 -80q-52 -56 -89.5 -150.5t-68.5 -243.5q-18 -83 -18 -126q0 -78 42.5 -123t116.5 -45h7zM608 838q128 0 213.5 -93.5t85.5 -234.5q0 -100 -42.5 -197.5t-110.5 -170t-159.5 -117.5
t-184.5 -45q-137 0 -222.5 93t-85.5 242q0 94 44 193t122 178q152 152 340 152zM426 1014l160 127q109 87 163 120t85 33q29 0 51 -24t22 -58q0 -45 -47.5 -75.5t-191.5 -77.5l-133 -43l-91 -33z" />
    <glyph glyph-name="ocircumflex" unicode="&#xf4;" 
d="M410 25q109 3 174 71q102 108 161 379q19 93 19 148q0 80 -43 125t-119 45q-111 0 -182 -80q-52 -56 -89.5 -150.5t-68.5 -243.5q-18 -83 -18 -126q0 -78 42.5 -123t116.5 -45h7zM608 838q128 0 213.5 -93.5t85.5 -234.5q0 -100 -42.5 -197.5t-110.5 -170t-159.5 -117.5
t-184.5 -45q-137 0 -222.5 93t-85.5 242q0 94 44 193t122 178q152 152 340 152zM332 983l303 322h92l207 -322h-43l-223 172l-283 -172h-53z" />
    <glyph glyph-name="otilde" unicode="&#xf5;" 
d="M410 25q109 3 174 71q102 108 161 379q19 93 19 148q0 80 -43 125t-119 45q-111 0 -182 -80q-52 -56 -89.5 -150.5t-68.5 -243.5q-18 -83 -18 -126q0 -78 42.5 -123t116.5 -45h7zM608 838q128 0 213.5 -93.5t85.5 -234.5q0 -100 -42.5 -197.5t-110.5 -170t-159.5 -117.5
t-184.5 -45q-137 0 -222.5 93t-85.5 242q0 94 44 193t122 178q152 152 340 152zM965 1245h36q-3 -107 -54.5 -166t-141.5 -59q-38 0 -85 12.5t-151 50.5q-69 25 -106 25q-39 0 -66.5 -25t-27.5 -61h-35q2 109 51.5 168t140.5 59q58 0 162 -41q90 -32 121.5 -40.5t58.5 -8.5
q77 0 97 86z" />
    <glyph glyph-name="odieresis" unicode="&#xf6;" 
d="M410 25q109 3 174 71q102 108 161 379q19 93 19 148q0 80 -43 125t-119 45q-111 0 -182 -80q-52 -56 -89.5 -150.5t-68.5 -243.5q-18 -83 -18 -126q0 -78 42.5 -123t116.5 -45h7zM608 838q128 0 213.5 -93.5t85.5 -234.5q0 -100 -42.5 -197.5t-110.5 -170t-159.5 -117.5
t-184.5 -45q-137 0 -222.5 93t-85.5 242q0 94 44 193t122 178q152 152 340 152zM451 1208q44 0 76 -29.5t32 -72.5q0 -46 -31 -76.5t-77 -30.5q-42 0 -72.5 31.5t-30.5 75.5q0 41 31.5 71.5t71.5 30.5zM846 1208q43 0 73.5 -30.5t30.5 -71.5q0 -44 -29.5 -75.5t-72.5 -31.5
q-46 0 -76.5 31.5t-30.5 77.5q0 40 32 70t73 30z" />
    <glyph glyph-name="divide" unicode="&#xf7;" horiz-adv-x="1368" 
d="M596 1083q2 33 26.5 56.5t59.5 23.5q34 0 58 -25t24 -59q0 -35 -24 -60.5t-58 -25.5q-35 0 -60.5 26.5t-25.5 63.5zM596 252q0 35 25.5 60.5t60.5 25.5t59.5 -25t24.5 -59q0 -35 -24.5 -60.5t-59.5 -25.5t-60.5 25t-25.5 59zM139 725h1090v-127h-1090v127z" />
    <glyph glyph-name="oslash" unicode="&#xf8;" 
d="M764 666l-498 -557q15 -39 54.5 -61.5t93.5 -22.5q196 0 288 284q62 189 62 314v43zM799 770l61 70l35 -29l-66 -72q76 -103 76 -231q0 -134 -70 -256.5t-184.5 -196t-240.5 -73.5q-110 0 -195 71l-61 -71l-37 30l65 72q-78 100 -78 231q0 96 45 194.5t125 178.5
q150 150 332 150q53 0 96.5 -15.5t96.5 -52.5zM248 158l500 555q-42 82 -144 82q-195 0 -289 -275q-67 -201 -67 -350v-12z" />
    <glyph glyph-name="ugrave" unicode="&#xf9;" horiz-adv-x="1087" 
d="M459 834h33l-195 -641q-14 -47 -14 -84q0 -29 20 -48.5t51 -19.5q38 0 93.5 31.5t107.5 83.5q59 58 97.5 128.5t68.5 172.5l100 362h137l-192 -686q-8 -24 -8 -47q0 -45 39 -45q78 0 153 117q38 55 72 151h45q-30 -89 -53.5 -134t-65.5 -95q-86 -100 -194 -100
q-62 0 -94.5 29.5t-32.5 86.5q0 33 16 82l-4 4q-75 -92 -133 -135q-88 -67 -193 -67q-74 0 -118.5 42t-44.5 111q0 36 12 74l170 555h-176l14 57h180q42 0 109 15zM948 1014l-16 -31l-90 33l-133 43q-144 47 -192 78t-48 75q0 34 21.5 58t52.5 24t85 -33t163 -120z" />
    <glyph glyph-name="uacute" unicode="&#xfa;" horiz-adv-x="1087" 
d="M459 834h33l-195 -641q-14 -47 -14 -84q0 -29 20 -48.5t51 -19.5q38 0 93.5 31.5t107.5 83.5q59 58 97.5 128.5t68.5 172.5l100 362h137l-192 -686q-8 -24 -8 -47q0 -45 39 -45q78 0 153 117q38 55 72 151h45q-30 -89 -53.5 -134t-65.5 -95q-86 -100 -194 -100
q-62 0 -94.5 29.5t-32.5 86.5q0 33 16 82l-4 4q-75 -92 -133 -135q-88 -67 -193 -67q-74 0 -118.5 42t-44.5 111q0 36 12 74l170 555h-176l14 57h180q42 0 109 15zM479 1014l160 127q109 87 163 120t85 33q30 0 52 -24.5t22 -57.5q0 -44 -48 -75t-192 -78l-133 -43l-90 -33z
" />
    <glyph glyph-name="ucircumflex" unicode="&#xfb;" horiz-adv-x="1087" 
d="M459 834h33l-195 -641q-14 -47 -14 -84q0 -29 20 -48.5t51 -19.5q38 0 93.5 31.5t107.5 83.5q59 58 97.5 128.5t68.5 172.5l100 362h137l-192 -686q-8 -24 -8 -47q0 -45 39 -45q78 0 153 117q38 55 72 151h45q-30 -89 -53.5 -134t-65.5 -95q-86 -100 -194 -100
q-62 0 -94.5 29.5t-32.5 86.5q0 33 16 82l-4 4q-75 -92 -133 -135q-88 -67 -193 -67q-74 0 -118.5 42t-44.5 111q0 36 12 74l170 555h-176l14 57h180q42 0 109 15zM385 983l303 322h92l207 -322h-43l-223 172l-283 -172h-53z" />
    <glyph glyph-name="udieresis" unicode="&#xfc;" horiz-adv-x="1087" 
d="M459 834h33l-195 -641q-14 -47 -14 -84q0 -29 20 -48.5t51 -19.5q38 0 93.5 31.5t107.5 83.5q59 58 97.5 128.5t68.5 172.5l100 362h137l-192 -686q-8 -24 -8 -47q0 -45 39 -45q78 0 153 117q38 55 72 151h45q-30 -89 -53.5 -134t-65.5 -95q-86 -100 -194 -100
q-62 0 -94.5 29.5t-32.5 86.5q0 33 16 82l-4 4q-75 -92 -133 -135q-88 -67 -193 -67q-74 0 -118.5 42t-44.5 111q0 36 12 74l170 555h-176l14 57h180q42 0 109 15zM504 1208q44 0 76 -29.5t32 -72.5q0 -46 -31 -76.5t-77 -30.5q-42 0 -72.5 31.5t-30.5 75.5q0 41 31.5 71.5
t71.5 30.5zM899 1208q43 0 74 -30.5t31 -71.5q0 -44 -30 -75.5t-73 -31.5q-45 0 -75.5 31.5t-30.5 77.5q0 40 31.5 70t72.5 30z" />
    <glyph glyph-name="yacute" unicode="&#xfd;" 
d="M115 522h-47q40 98 67.5 145.5t71.5 94.5q70 76 151 76q53 0 81.5 -39.5t41.5 -132.5l72 -488h4l199 455q51 113 85 159t66 46q29 0 49.5 -19t20.5 -47q0 -29 -18.5 -48t-45.5 -19q-16 0 -28 4q-10 4 -21 4q-15 0 -26 -14t-31 -60l-256 -573q-108 -247 -247.5 -397
t-258.5 -150q-44 0 -73 23.5t-29 60.5q0 30 20.5 50.5t50.5 20.5q34 0 60 -41q24 -39 51 -39q65 0 184 150q47 58 74 101t68 124l-105 707q-12 86 -47 86q-38 0 -89 -66t-95 -174zM426 1014l160 127q109 87 163 120t85 33q29 0 51 -24t22 -58q0 -45 -47.5 -75.5
t-191.5 -77.5l-133 -43l-91 -33z" />
    <glyph glyph-name="thorn" unicode="&#xfe;" 
d="M340 514l-68 -242q-12 -43 -12 -86q0 -75 44.5 -118t121.5 -43q63 0 131 43q45 31 75 74t58 114q40 99 66 210t26 177q0 74 -35.5 114t-101.5 40q-91 0 -182 -84.5t-123 -198.5zM594 1411l-201 -704l4 -5q69 76 127 107t133 31q114 0 189.5 -89t75.5 -221
q0 -137 -71 -265t-186.5 -206.5t-238.5 -78.5q-75 0 -122 31t-79 102l-155 -539h178l-15 -53h-466l18 53h149l504 1769h-168l15 54h155q46 0 95 10q8 1 16.5 2t13 1.5t8.5 0.5h21z" />
    <glyph glyph-name="ydieresis" unicode="&#xff;" 
d="M115 522h-47q40 98 67.5 145.5t71.5 94.5q70 76 151 76q53 0 81.5 -39.5t41.5 -132.5l72 -488h4l199 455q51 113 85 159t66 46q29 0 49.5 -19t20.5 -47q0 -29 -18.5 -48t-45.5 -19q-16 0 -28 4q-10 4 -21 4q-15 0 -26 -14t-31 -60l-256 -573q-108 -247 -247.5 -397
t-258.5 -150q-44 0 -73 23.5t-29 60.5q0 30 20.5 50.5t50.5 20.5q34 0 60 -41q24 -39 51 -39q65 0 184 150q47 58 74 101t68 124l-105 707q-12 86 -47 86q-38 0 -89 -66t-95 -174zM451 1208q44 0 76 -29.5t32 -72.5q0 -46 -31 -76.5t-77 -30.5q-42 0 -72.5 31.5t-30.5 75.5
q0 41 31.5 71.5t71.5 30.5zM846 1208q43 0 73.5 -30.5t30.5 -71.5q0 -44 -29.5 -75.5t-72.5 -31.5q-46 0 -76.5 31.5t-30.5 77.5q0 40 32 70t73 30z" />
    <glyph glyph-name="dotlessi" unicode="&#x131;" horiz-adv-x="661" 
d="M510 834l-207 -725q-2 -6 -2 -17q0 -20 13.5 -34.5t33.5 -14.5q68 0 135 98q41 58 88 168h41q-29 -86 -52 -129.5t-64 -93.5q-95 -109 -193 -109q-60 0 -95.5 33.5t-35.5 89.5q0 26 10 64l172 598h-190l16 57h80l135 6l47 4l54 5h14z" />
    <glyph glyph-name="Lslash" unicode="&#x141;" horiz-adv-x="1193" 
d="M373 1397h592l-13 -56h-211l-131 -499l4 -4l279 237l-21 -88l-284 -239l-178 -691h278q153 0 258 99q50 47 85 96.5t91 153.5h49l-122 -404h-1010l12 55h170l127 484l-4 4l-246 -213l21 90l252 211l182 708h-195z" />
    <glyph glyph-name="lslash" unicode="&#x142;" horiz-adv-x="661" 
d="M666 1409l-172 -600l4 -4l198 172l-16 -72l-209 -176l-162 -579q-10 -33 -10 -52q0 -47 45 -47q31 0 71 24.5t77 65.5q33 38 50.5 70t41.5 96h49q-32 -82 -56.5 -124t-64.5 -85q-51 -55 -110 -85.5t-115 -30.5q-57 0 -89 30.5t-32 85.5q0 35 8 66l117 407l-4 4l-195 -167
l17 73l204 174l195 686h-174l16 54h150q55 0 96 10q6 1 14 2.5t11 1.5h45z" />
    <glyph glyph-name="OE" unicode="&#x152;" horiz-adv-x="1961" 
d="M889 55l336 1293h-217q-110 0 -194.5 -36.5t-166.5 -119.5q-134 -137 -209 -332q-82 -218 -82 -397q0 -202 80 -305t238 -103h215zM1518 1393h532l-86 -373h-51q16 99 16 145q0 94 -37.5 133t-126.5 39h-356l-156 -587h136q98 0 155 51.5t82 161.5h49l-137 -541h-51
q22 100 22 145q0 66 -32.5 96.5t-104.5 30.5h-129l-170 -639h361q144 0 241 97q47 47 78.5 96t77.5 149h49l-137 -397h-879h-4q-24 0 -49 -2q-9 -1 -32 -2t-34 -2h-18q-6 0 -13.5 -1t-8.5 -1q-266 0 -410 147q-68 71 -108 173.5t-40 205.5q0 168 71.5 333.5t198.5 295.5
t283 196q145 62 324 62q6 0 24 -1t29 -1l119 -2q19 0 125 -4q30 -1 68.5 -1.5t60 -1t33.5 -1.5h35z" />
    <glyph glyph-name="oe" unicode="&#x153;" horiz-adv-x="1429" 
d="M874 459h76q138 0 227 59.5t89 153.5q0 52 -31 85.5t-78 33.5q-92 0 -168 -95q-43 -51 -65 -97t-50 -140zM387 25q49 0 98 20t80 53q102 111 162 394q16 85 16 131q0 82 -44 127t-124 45q-172 0 -251 -211q-40 -106 -67.5 -221.5t-27.5 -178.5q0 -75 42 -117t116 -42z
M1315 252h49q-40 -72 -66 -106.5t-65 -69.5q-108 -99 -246 -99q-83 0 -141 35.5t-121 126.5q-62 -59 -97.5 -84.5t-88.5 -46.5q-76 -31 -146 -31q-132 0 -218.5 93.5t-86.5 238.5q0 134 68 257.5t180.5 198.5t234.5 75q98 0 161 -38.5t114 -129.5q75 71 139 112
q86 56 195 56q98 0 157.5 -45.5t59.5 -120.5q0 -110 -116 -185t-288 -75h-131q-37 -100 -37 -178q0 -98 50.5 -155.5t138.5 -57.5q96 0 188 83q34 30 57 59t56 87z" />
    <glyph glyph-name="Scaron" unicode="&#x160;" horiz-adv-x="1087" 
d="M1034 1305l90 88h47l-90 -365h-43q-4 96 -26 156t-70 108q-78 78 -192 78q-119 0 -208 -73t-89 -171q0 -80 55 -141t197 -137q183 -98 249 -182q66 -85 66 -195q0 -138 -65 -253.5t-177.5 -182t-247.5 -66.5q-93 0 -166 27t-155 90q-51 -25 -100 -86h-58l82 399h53
q0 -101 20 -162t70 -114q95 -98 252 -98q143 0 250 97.5t107 229.5q0 91 -63.5 163t-217.5 155q-73 39 -101 57.5t-69 54.5q-60 65 -86 120.5t-26 119.5q0 107 59 199.5t159 147t214 54.5q84 0 148.5 -27t131.5 -91zM1219 1821l-304 -322h-92l-207 322h43l224 -170l282 170
h54z" />
    <glyph glyph-name="scaron" unicode="&#x161;" horiz-adv-x="768" 
d="M563 440q88 -94 88 -190q0 -118 -93 -194t-236 -76q-104 0 -182.5 53.5t-78.5 124.5q0 35 21.5 59.5t52.5 24.5q29 0 48.5 -18.5t19.5 -47.5q0 -21 -17 -49q-14 -22 -14 -35q0 -28 49 -48.5t115 -20.5q83 0 146 48t63 111q0 47 -31.5 87t-124.5 110q-98 75 -133 122.5
t-35 106.5q0 100 77 165t194 65q94 0 153.5 -38.5t59.5 -101.5q0 -29 -20.5 -50t-49.5 -21q-28 0 -45 19.5t-17 51.5q0 3 2 11.5t3 13.5q2 8 2 18q0 23 -29.5 38.5t-71.5 15.5q-66 0 -114 -32.5t-48 -76.5q0 -37 25 -68.5t92 -76.5q91 -65 129 -101zM905 1321l-303 -322h-92
l-207 322h43l223 -170l283 170h53z" />
    <glyph glyph-name="Ydieresis" unicode="&#x178;" horiz-adv-x="1536" 
d="M387 1393h580l-15 -56h-194l205 -678l501 678h-213l15 56h463l-17 -56h-180l-551 -743l-137 -539h221l-12 -55h-621l10 55h215l140 543l-224 739h-200zM883 1708q44 0 76 -29.5t32 -72.5q0 -46 -31 -76.5t-77 -30.5q-42 0 -72.5 31.5t-30.5 75.5q0 41 31.5 71.5
t71.5 30.5zM1278 1708q43 0 73.5 -30.5t30.5 -71.5q0 -44 -29.5 -75.5t-72.5 -31.5q-45 0 -75.5 31.5t-30.5 77.5q0 40 31.5 70t72.5 30z" />
    <glyph glyph-name="Zcaron" unicode="&#x17d;" horiz-adv-x="1193" 
d="M438 1393h871v-45l-1049 -1293h420q127 0 223 90q51 49 83 96.5t85 149.5h49l-119 -391h-962v57l1042 1280h-358q-103 0 -166 -57q-47 -43 -77 -86t-95 -158h-53zM1272 1821l-303 -322h-92l-207 322h43l223 -170l283 170h53z" />
    <glyph glyph-name="zcaron" unicode="&#x17e;" horiz-adv-x="874" 
d="M90 111l629 561l-4 4q-93 -14 -170 -14q-66 0 -109 6.5t-96 25.5q-2 1 -4.5 2t-3.5 1.5t-2 0.5t-13 4l-86 -147l-41 23l160 260q236 -90 375 -90q74 0 74 24q0 6 -4 14q-7 14 -7 19q0 13 12 23t27 10t26 -12t11 -27q0 -21 -16 -50t-39 -49l-588 -530h53q63 0 181 -47
q112 -45 166 -45q39 0 65.5 17.5t26.5 43.5q0 14 -6 18t-31 5q-34 2 -54 16.5t-20 38.5q0 25 22 43.5t52 18.5q38 0 62 -30t24 -77q0 -80 -69 -136t-167 -56q-95 0 -243 63q-89 39 -127 39q-29 0 -29 -23q0 -14 2 -24q4 -16 4 -17q0 -38 -45 -38q-43 0 -43 45q0 19 13.5 45
t31.5 41zM958 1321l-303 -322h-92l-207 322h43l224 -170l282 170h53z" />
    <glyph glyph-name="florin" unicode="&#x192;" horiz-adv-x="999" 
d="M684 874h178l-16 -65h-174q-33 -167 -84 -377q-28 -108 -103 -383q-133 -479 -364 -479q-54 0 -87.5 29.5t-33.5 78.5q0 34 23.5 59t54.5 25q34 0 55 -28q10 -13 10 -27q0 -23 -10 -33l-10 -10q-4 -8 -4 -16q0 -7 7.5 -13t16.5 -6q105 0 166 297l86 422l105 422l8 39
h-176l14 65q5 0 12.5 1.5t10.5 1.5q39 2 60 4t42.5 10.5t31.5 17t23.5 31.5t22 46.5t24.5 68.5q54 157 97 222.5t112 94.5q35 14 76 14q61 0 100 -30.5t39 -79.5q0 -34 -19 -56t-48 -22q-25 0 -44.5 17t-19.5 40q0 17 13 37q6 12 6 15q2 4 2 12q0 27 -37 27q-49 0 -74 -42.5
t-47 -162.5l-33 -201z" />
    <glyph glyph-name="circumflex" unicode="&#x2c6;" horiz-adv-x="681" 
d="M182 983l303 322h93l206 -322h-43l-223 172l-282 -172h-54z" />
    <glyph glyph-name="caron" unicode="&#x2c7;" horiz-adv-x="681" 
d="M862 1321l-303 -322h-92l-207 322h43l223 -170l283 170h53z" />
    <glyph glyph-name="breve" unicode="&#x2d8;" horiz-adv-x="681" 
d="M297 1313h41q15 -83 56.5 -120.5t119.5 -37.5q158 0 234 158h38q-15 -136 -96.5 -224t-191.5 -88q-86 0 -146.5 73t-60.5 179q0 19 6 60z" />
    <glyph glyph-name="dotaccent" unicode="&#x2d9;" horiz-adv-x="681" 
d="M489 1208q44 0 75.5 -30.5t31.5 -71.5q0 -45 -30 -76t-74 -31t-74.5 31.5t-30.5 77.5q0 40 30.5 70t71.5 30z" />
    <glyph glyph-name="ring" unicode="&#x2da;" horiz-adv-x="681" 
d="M588 1333q78 0 138 -54t60 -124q0 -89 -56 -144t-148 -55q-87 0 -146 54.5t-59 134.5q0 82 59.5 135t151.5 53zM584 1272q-57 0 -99.5 -37t-42.5 -88q0 -54 40 -90.5t100 -36.5q61 0 102 36t41 89q0 54 -40.5 90.5t-100.5 36.5z" />
    <glyph glyph-name="ogonek" unicode="&#x2db;" horiz-adv-x="681" 
d="M471 -258l21 -27q-144 -112 -263 -112q-86 0 -139 50t-53 132q0 60 42 128t107 114h41q-84 -94 -84 -150q0 -72 74 -129q63 -51 129 -51q54 0 125 45z" />
    <glyph glyph-name="tilde" unicode="&#x2dc;" horiz-adv-x="681" 
d="M815 1245h37q-3 -107 -55 -166t-142 -59q-38 0 -84.5 12.5t-150.5 50.5q-69 25 -107 25q-39 0 -66.5 -25t-27.5 -61h-35q1 109 51.5 168t141.5 59q58 0 162 -41q90 -32 121.5 -40.5t58.5 -8.5q76 0 96 86z" />
    <glyph glyph-name="hungarumlaut" unicode="&#x2dd;" horiz-adv-x="681" 
d="M184 997l92 121q79 105 117.5 139.5t75.5 34.5q32 0 55 -24t23 -58q0 -40 -32.5 -68.5t-127.5 -74.5l-86 -41l-80 -37l-20 -12zM506 999l98 131q120 164 184 164q34 0 57 -21.5t23 -53.5q0 -47 -39.5 -82t-140.5 -78q-7 -3 -36 -16t-52 -23l-70 -33l-8 -4z" />
    <glyph glyph-name="endash" unicode="&#x2013;" horiz-adv-x="1024" 
d="M-18 551h1060v-62h-1060v62z" />
    <glyph glyph-name="emdash" unicode="&#x2014;" horiz-adv-x="2048" 
d="M-18 551h2084v-62h-2084v62z" />
    <glyph glyph-name="quoteleft" unicode="&#x2018;" horiz-adv-x="555" 
d="M612 1423l19 -39q-83 -34 -124 -57.5t-81 -60.5q-76 -70 -76 -146q0 -29 8.5 -46t22.5 -17q7 0 16 22q26 66 84 66q45 0 78 -31.5t33 -75.5q0 -57 -42.5 -95t-105.5 -38q-72 0 -116.5 50t-44.5 130q0 113 88 195q52 48 97.5 75t143.5 68z" />
    <glyph glyph-name="quoteright" unicode="&#x2019;" horiz-adv-x="555" 
d="M332 899l-15 43q111 42 172.5 88.5t92.5 110.5q12 27 12 63q0 29 -8.5 45.5t-22.5 16.5q-8 0 -16 -19q-23 -65 -84 -65q-46 0 -77.5 29.5t-31.5 72.5q0 63 40 100t108 37q67 0 113.5 -51.5t46.5 -126.5q0 -119 -103 -211q-49 -45 -92.5 -70t-134.5 -63z" />
    <glyph glyph-name="quotesinglbase" unicode="&#x201a;" horiz-adv-x="555" 
d="M135 -307l-12 41q115 48 175.5 93t86.5 105q12 27 12 64q0 63 -26 63q-6 0 -15 -18q-26 -66 -90 -66q-46 0 -76 29.5t-30 75.5q0 54 44 94.5t101 40.5q69 0 115.5 -51t46.5 -129q0 -115 -96 -205q-52 -48 -97 -74.5t-139 -62.5z" />
    <glyph glyph-name="quotedblleft" unicode="&#x201c;" 
d="M1085 1462l17 -43q-112 -46 -170.5 -92.5t-87.5 -112.5q-15 -30 -15 -61q0 -26 8.5 -41.5t20.5 -15.5q5 0 14 18q35 68 95 68q44 0 74 -31.5t30 -77.5q0 -52 -44 -91.5t-103 -39.5q-69 0 -116.5 52t-47.5 128q0 112 88 197q52 48 96.5 75t140.5 68zM649 1458l15 -39
q-86 -38 -127 -63t-78 -60q-66 -66 -66 -147q0 -57 27 -57q8 0 16 22q25 66 84 66q51 0 82 -30t31 -77q0 -58 -42.5 -96.5t-105.5 -38.5q-69 0 -115 52.5t-46 129.5q0 115 88 197q49 45 93.5 71.5t143.5 69.5z" />
    <glyph glyph-name="quotedblright" unicode="&#x201d;" 
d="M797 901l-15 39q77 30 116.5 53.5t78.5 61.5q78 72 78 153q0 24 -7.5 41t-17.5 17q-12 0 -20 -25q-13 -32 -33.5 -45.5t-54.5 -13.5q-47 0 -75 28.5t-28 75.5q0 58 41.5 95.5t104.5 37.5q68 0 112.5 -52.5t44.5 -131.5q0 -109 -94 -197q-51 -47 -95.5 -73.5t-135.5 -63.5
zM356 901l-14 41q81 32 121 55t80 60q73 67 73 143q0 66 -28 66q-7 0 -15 -19q-24 -67 -90 -67q-44 0 -74 30t-30 74q0 56 42.5 96.5t102.5 40.5q70 0 116 -50.5t46 -127.5q0 -123 -106 -215q-46 -43 -90 -67.5t-134 -59.5z" />
    <glyph glyph-name="quotedblbase" unicode="&#x201e;" 
d="M498 -315l-15 41q81 33 120.5 55.5t78.5 60.5q78 75 78 152q0 22 -9 39.5t-20 17.5q-10 0 -18 -24q-23 -62 -92 -62q-45 0 -74 30t-29 77q0 55 43 94t103 39q75 0 119 -51.5t44 -137.5q0 -106 -90 -190q-53 -47 -98.5 -74t-140.5 -67zM55 -313l-12 39q85 36 124.5 59
t78.5 61q71 68 71 146q0 24 -8 42.5t-18 18.5q-6 0 -12 -18q-23 -68 -97 -68q-44 0 -74 31t-30 76q0 54 45 93.5t108 39.5q68 0 113 -50t45 -128q0 -120 -100 -209q-52 -47 -97 -72.5t-137 -60.5z" />
    <glyph glyph-name="dagger" unicode="&#x2020;" horiz-adv-x="1087" 
d="M287 -479h-45q77 291 120 508q29 171 33 200q18 142 25 320q109 121 172 303q-102 -2 -201 -29q-71 -18 -104 -18q-51 0 -79 19.5t-28 54.5q0 34 31 54.5t82 20.5q30 0 106 -22q67 -19 103.5 -25.5t101.5 -7.5q22 89 29 141t8 138q3 138 28.5 193.5t86.5 55.5
q32 0 52.5 -26t20.5 -66q0 -53 -59 -155q-47 -83 -68.5 -134.5t-48.5 -146.5q61 1 99 8t108 27q74 20 115 20q46 0 74 -19.5t28 -53.5q0 -37 -27.5 -57.5t-76.5 -20.5q-36 0 -107 18q-69 19 -109 24t-116 5q-14 -79 -14 -143q0 -81 26 -158q-102 -212 -170 -387
q-36 -97 -55 -154q-38 -112 -141 -487z" />
    <glyph glyph-name="daggerdbl" unicode="&#x2021;" 
d="M776 977q77 2 199 33q91 22 125 22t54 -19.5t20 -51.5t-31 -56t-74 -24q-40 0 -121 22q-105 29 -182 33q-8 -49 -8 -76q0 -64 39 -125q-45 -40 -65.5 -67t-45.5 -78q-63 -132 -63 -246q0 -69 30 -133q-54 -55 -79.5 -95.5t-47.5 -103.5q65 1 104 7.5t111 27.5
q75 23 113 23q37 0 57.5 -16.5t20.5 -45.5q0 -38 -33 -64t-82 -26q-34 0 -106 21q-64 20 -98 25.5t-101 8.5q-10 -66 -10 -125q0 -40 2 -65q0 -16 1 -29t1 -16q0 -89 -36.5 -151t-88.5 -62q-31 0 -49.5 23t-18.5 61q0 36 15.5 76.5t54.5 111.5q34 60 47.5 89.5t32.5 88.5
q-63 -3 -103 -9.5t-110 -26.5q-75 -21 -107 -21q-37 0 -59.5 17.5t-22.5 46.5q0 37 33 59t88 22q33 0 117 -20q65 -18 94 -23t82 -6q8 47 8 72q0 67 -39 131q47 44 68.5 73t44.5 81q57 120 57 225q0 70 -32 141q50 44 78.5 88t50.5 111q-94 -6 -213 -37q-76 -20 -105 -20
q-35 0 -56.5 17t-21.5 46q0 40 30 65t79 25q31 0 92 -20q61 -21 97.5 -27.5t107.5 -9.5q18 63 18 125q0 36 -2 61t-2 45q0 95 34.5 154t90.5 59q64 0 64 -82q0 -36 -15 -74.5t-53 -105.5q-40 -66 -53.5 -95.5t-26.5 -84.5z" />
    <glyph glyph-name="bullet" unicode="&#x2022;" horiz-adv-x="716" 
d="M360 928q103 0 176.5 -73t73.5 -177t-73.5 -178t-176.5 -74q-104 0 -177.5 73.5t-73.5 176.5q0 104 73.5 178t177.5 74z" />
    <glyph glyph-name="ellipsis" unicode="&#x2026;" horiz-adv-x="1961" 
d="M336 215q51 0 86 -34.5t35 -84.5q0 -51 -35 -86t-86 -35q-50 0 -84.5 35t-34.5 86q0 50 34.5 84.5t84.5 34.5zM995 215q49 0 83 -34.5t34 -84.5q0 -48 -34 -82t-83 -34t-83.5 34t-34.5 82q0 50 34.5 84.5t83.5 34.5zM1655 219q49 0 84 -34.5t35 -84.5q0 -49 -34.5 -83.5
t-84.5 -34.5t-84.5 34.5t-34.5 83.5q0 50 35 84.5t84 34.5z" />
    <glyph glyph-name="perthousand" unicode="&#x2030;" horiz-adv-x="1984" 
d="M1548 -63q-91 0 -145.5 76t-54.5 202q0 105 47.5 203t125 157.5t160.5 59.5q89 0 142 -74t53 -199q0 -106 -46.5 -205t-123 -159.5t-158.5 -60.5zM1546 406l-43 -173q-28 -124 -28 -170q0 -40 20 -65t51 -25q47 0 79 50.5t61 171.5l32 141q29 122 29 178q0 36 -20 60
t-50 24q-86 0 -131 -192zM922 -63q-92 0 -146.5 76t-54.5 202q0 105 47.5 203t125.5 157.5t161 59.5q89 0 141.5 -74t52.5 -199q0 -106 -46.5 -205t-122.5 -159.5t-158 -60.5zM920 406l-43 -173q-29 -129 -29 -170q0 -39 20.5 -64.5t51.5 -25.5q47 0 78.5 50t60.5 172
l33 141q28 118 28 178q0 36 -19.5 60t-49.5 24q-86 0 -131 -192zM369 678q-92 0 -146.5 75t-54.5 203q0 104 47.5 201.5t125.5 157t161 59.5q89 0 141.5 -73t52.5 -197q0 -107 -46.5 -206t-122.5 -159.5t-158 -60.5zM367 1147l-43 -174q-29 -132 -29 -170q0 -39 20.5 -63.5
t51.5 -24.5q47 0 78.5 49.5t60.5 169.5l33 141q28 121 28 178q0 37 -19 60.5t-50 23.5q-44 0 -76 -46.5t-55 -143.5zM1229 1372h82l-1123 -1435h-86z" />
    <glyph glyph-name="guilsinglleft" unicode="&#x2039;" horiz-adv-x="555" 
d="M477 895h47l-303 -420l144 -422h-41l-238 424z" />
    <glyph glyph-name="guilsinglright" unicode="&#x203a;" horiz-adv-x="555" 
d="M233 895h39l240 -422l-389 -420h-47l303 420z" />
    <glyph glyph-name="fraction" unicode="&#x2044;" horiz-adv-x="661" 
d="M858 1374h96l-1185 -1413h-97z" />
    <glyph glyph-name="trademark" unicode="&#x2122;" horiz-adv-x="2007" 
d="M51 1356h729l21 -201h-33q-14 80 -56 110.5t-139 30.5h-73v-579q0 -83 17.5 -106t86.5 -27v-35h-375v35q69 7 85 28t16 103v581h-76q-93 0 -133.5 -30.5t-57.5 -110.5h-32zM1157 1356l273 -572l264 572h278v-37q-72 -1 -90 -24t-18 -111v-467q0 -87 16.5 -108t91.5 -25
v-35h-397v35q77 3 98 26t21 105v491h-4l-301 -657h-33l-305 649h-4v-481q0 -83 17.5 -108t76.5 -25h37v-35h-308v35q73 0 93 23t20 108v467q0 92 -19 114.5t-94 22.5v37h287z" />
    <glyph glyph-name="minus" unicode="&#x2212;" horiz-adv-x="1366" 
d="M139 729h1088v-131h-1088v131z" />
    <glyph glyph-name="fi" unicode="&#xfb01;" horiz-adv-x="1087" 
d="M494 819h329q1 0 41 4q11 4 60 11h45l-197 -701q-8 -21 -8 -47q0 -41 33 -41q60 0 119 69.5t102 192.5h47q-36 -98 -62 -144t-71 -97q-80 -89 -176 -89q-60 0 -92.5 29t-32.5 82q0 25 6 49l176 625h-332l-102 -391q-88 -332 -158.5 -500.5t-159.5 -259.5
q-43 -46 -95.5 -73t-98.5 -27q-63 0 -108.5 33t-45.5 77q0 37 22 61.5t56 24.5q31 0 51.5 -21.5t20.5 -52.5l-10 -47q0 -24 34 -24q146 0 234 346l217 854h-180l12 57h184q42 125 69 187.5t66 126.5q53 83 123 153q132 129 262 129q76 0 122 -36.5t46 -96.5q0 -38 -23.5 -65
t-55.5 -27q-31 0 -49.5 20t-18.5 52q0 17 14 49q11 22 11 24q0 15 -17 24t-45 9q-129 0 -221 -164q-60 -104 -107 -260q-7 -24 -36 -125z" />
    <glyph glyph-name="fl" unicode="&#xfb02;" horiz-adv-x="1087" 
d="M1135 1415l-361 -1268q-10 -38 -10 -57q0 -43 43 -43q101 0 203 262h45q-37 -104 -62.5 -153t-68.5 -99q-71 -80 -156 -80q-65 0 -100 31.5t-35 89.5q0 36 12 74l291 1032q-23 23 -23 53q0 18 17 52q8 13 8 22q0 19 -18 31t-46 12q-62 0 -125 -46t-106 -122
q-69 -118 -131 -323q0 -2 -6.5 -25t-11.5 -39h225l-17 -57h-225l-153 -586q-88 -327 -205 -495t-258 -168q-68 0 -109 31t-41 83q0 35 22.5 57.5t57.5 22.5q28 0 47 -22t19 -54q0 -12 -2 -24q-1 -3 -2 -7.5t-2 -7t-1 -4.5q0 -12 11 -20t28 -8q36 0 74 31t64 83
q40 74 75 189.5t82 329.5q28 119 66 264l86 305h-178l12 57h184q43 125 71 187.5t69 128.5q52 88 122 155q125 125 258 125q25 0 72 -8q22 -5 53 -8q33 0 62 16h74z" />
  </font>
</defs>
</svg>
